  0
SECTION
  2
HEADER
  9
$ACADVER
  1
AC1015
  9
$ACADMAINTVER
 70
     6
  9
$DWGCODEPAGE
  3
DOS850
  9
$INSBASE
 10
0.0
 20
0.0
 30
0.0
  9
$EXTMIN
 10
-9.35103
 20
8.78311
 30
1.000000E+20
  9
$EXTMAX
 10
7.69119
 20
12.78448
 30
-1.000000E+20
  9
$LIMMIN
 10
0.0
 20
0.0
  9
$LIMMAX
 10
0.0
 20
0.0
  9
$ORTHOMODE
 70
     0
  9
$REGENMODE
 70
     1
  9
$FILLMODE
 70
     1
  9
$QTEXTMODE
 70
     0
  9
$MIRRTEXT
 70
     1
  9
$LTSCALE
 40
1.0
  9
$ATTMODE
 70
     1
  9
$TEXTSIZE
 40
0.2
  9
$TRACEWID
 40
0.05
  9
$TEXTSTYLE
  7
Standard
  9
$CLAYER
  8
0
  9
$CELTYPE
  6
Continuous
  9
$CECOLOR
 62
   256
  9
$CELTSCALE
 40
1.0
  9
$DISPSILH
 70
     0
  9
$DIMSCALE
 40
1.0
  9
$DIMASZ
 40
0.18
  9
$DIMEXO
 40
0.0625
  9
$DIMDLI
 40
0.38
  9
$DIMRND
 40
0.0
  9
$DIMDLE
 40
0.0
  9
$DIMEXE
 40
0.18
  9
$DIMTP
 40
0.0
  9
$DIMTM
 40
0.0
  9
$DIMTXT
 40
0.18
  9
$DIMCEN
 40
0.09
  9
$DIMTSZ
 40
0.0
  9
$DIMTOL
 70
     0
  9
$DIMLIM
 70
     0
  9
$DIMTIH
 70
     1
  9
$DIMTOH
 70
     1
  9
$DIMSE1
 70
     0
  9
$DIMSE2
 70
     0
  9
$DIMTAD
 70
     0
  9
$DIMZIN
 70
     0
  9
$DIMBLK
  1

  9
$DIMASO
 70
     1
  9
$DIMSHO
 70
     1
  9
$DIMPOST
  1

  9
$DIMAPOST
  1

  9
$DIMALT
 70
     0
  9
$DIMALTD
 70
     2
  9
$DIMALTF
 40
25.4
  9
$DIMLFAC
 40
1.0
  9
$DIMTOFL
 70
     0
  9
$DIMTVP
 40
0.0
  9
$DIMTIX
 70
     0
  9
$DIMSOXD
 70
     0
  9
$DIMSAH
 70
     0
  9
$DIMBLK1
  1

  9
$DIMBLK2
  1

  9
$DIMSTYLE
  2
Standard
  9
$DIMCLRD
 70
     0
  9
$DIMCLRE
 70
     0
  9
$DIMCLRT
 70
     0
  9
$DIMTFAC
 40
1.0
  9
$DIMGAP
 40
0.09
  9
$DIMJUST
 70
     0
  9
$DIMSD1
 70
     0
  9
$DIMSD2
 70
     0
  9
$DIMTOLJ
 70
     1
  9
$DIMTZIN
 70
     0
  9
$DIMALTZ
 70
     0
  9
$DIMALTTZ
 70
     0
  9
$DIMUPT
 70
     0
  9
$DIMDEC
 70
     4
  9
$DIMTDEC
 70
     4
  9
$DIMALTU
 70
     2
  9
$DIMALTTD
 70
     2
  9
$DIMTXSTY
  7
Standard
  9
$DIMAUNIT
 70
     0
  9
$DIMADEC
 70
     0
  9
$DIMALTRND
 40
0.0
  9
$DIMAZIN
 70
     0
  9
$DIMDSEP
 70
     0
  9
$DIMATFIT
 70
     3
  9
$DIMFRAC
 70
     0
  9
$DIMLDRBLK
  1

  9
$DIMLUNIT
 70
     2
  9
$DIMLWD
 70
     0
  9
$DIMLWE
 70
     0
  9
$DIMTMOVE
 70
     0
  9
$LUNITS
 70
     2
  9
$LUPREC
 70
     4
  9
$SKETCHINC
 40
0.1
  9
$FILLETRAD
 40
0.0
  9
$AUNITS
 70
     0
  9
$AUPREC
 70
     0
  9
$MENU
  1
acad
  9
$ELEVATION
 40
0.0
  9
$PELEVATION
 40
0.0
  9
$THICKNESS
 40
0.0
  9
$LIMCHECK
 70
     0
  9
$CHAMFERA
 40
0.0
  9
$CHAMFERB
 40
0.0
  9
$CHAMFERC
 40
0.0
  9
$CHAMFERD
 40
0.0
  9
$SKPOLY
 70
     0
  9
$TDCREATE
 40
0.000000000
  9
$TDUCREATE
 40
0.000000000
  9
$TDUPDATE
 40
0.000000000
  9
$TDUUPDATE
 40
0.000000000
  9
$TDINDWG
 40
0.0000000000
  9
$TDUSRTIMER
 40
0.0000000000
  9
$USRTIMER
 70
     1
  9
$ANGBASE
 50
0.0
  9
$ANGDIR
 70
     0
  9
$PDMODE
 70
     0
  9
$PDSIZE
 40
0.0
  9
$PLINEWID
 40
0.0
  9
$SPLFRAME
 70
     0
  9
$SPLINETYPE
 70
     6
  9
$SPLINESEGS
 70
     8
  9
$HANDSEED
  5
57
  9
$SURFTAB1
 70
     6
  9
$SURFTAB2
 70
     6
  9
$SURFTYPE
 70
     6
  9
$SURFU
 70
     6
  9
$SURFV
 70
     6
  9
$UCSBASE
  2

  9
$UCSNAME
  2

  9
$UCSORG
 10
0.0
 20
0.0
 30
0.0
  9
$UCSXDIR
 10
1.0
 20
0.0
 30
0.0
  9
$UCSYDIR
 10
0.0
 20
1.0
 30
0.0
  9
$UCSORTHOREF
  2

  9
$UCSORTHOVIEW
 70
     0
  9
$UCSORGTOP
 10
0.0
 20
0.0
 30
0.0
  9
$UCSORGBOTTOM
 10
0.0
 20
0.0
 30
0.0
  9
$UCSORGLEFT
 10
0.0
 20
0.0
 30
0.0
  9
$UCSORGRIGHT
 10
0.0
 20
0.0
 30
0.0
  9
$UCSORGFRONT
 10
0.0
 20
0.0
 30
0.0
  9
$UCSORGBACK
 10
0.0
 20
0.0
 30
0.0
  9
$PUCSBASE
  2

  9
$PUCSNAME
  2

  9
$PUCSORG
 10
0.0
 20
0.0
 30
0.0
  9
$PUCSXDIR
 10
1.0
 20
0.0
 30
0.0
  9
$PUCSYDIR
 10
0.0
 20
1.0
 30
0.0
  9
$PUCSORTHOREF
  2

  9
$PUCSORTHOVIEW
 70
     0
  9
$PUCSORGTOP
 10
0.0
 20
0.0
 30
0.0
  9
$PUCSORGBOTTOM
 10
0.0
 20
0.0
 30
0.0
  9
$PUCSORGLEFT
 10
0.0
 20
0.0
 30
0.0
  9
$PUCSORGRIGHT
 10
0.0
 20
0.0
 30
0.0
  9
$PUCSORGFRONT
 10
0.0
 20
0.0
 30
0.0
  9
$PUCSORGBACK
 10
0.0
 20
0.0
 30
0.0
  9
$USERI1
 70
     0
  9
$USERI2
 70
     0
  9
$USERI3
 70
     0
  9
$USERI4
 70
     0
  9
$USERI5
 70
     0
  9
$USERR1
 40
0.0
  9
$USERR2
 40
0.0
  9
$USERR3
 40
0.0
  9
$USERR4
 40
0.0
  9
$USERR5
 40
0.0
  9
$WORLDVIEW
 70
     1
  9
$SHADEDGE
 70
     3
  9
$SHADEDIF
 70
    70
  9
$TILEMODE
 70
     1
  9
$MAXACTVP
 70
    16
  9
$PINSBASE
 10
0.0
 20
0.0
 30
0.0
  9
$PLIMCHECK
 70
     0
  9
$PEXTMIN
 10
1.000000E+20
 20
1.000000E+20
 30
1.000000E+20
  9
$PEXTMAX
 10
-1.000000E+20
 20
-1.000000E+20
 30
-1.000000E+20
  9
$PLIMMIN
 10
0.0
 20
0.0
  9
$PLIMMAX
 10
12.0
 20
9.0
  9
$UNITMODE
 70
     0
  9
$VISRETAIN
 70
     0
  9
$PLINEGEN
 70
     1
  9
$PSLTSCALE
 70
     0
  9
$TREEDEPTH
 70
  3020
  9
$CMLSTYLE
  2
Standard
  9
$CMLJUST
 70
     0
  9
$CMLSCALE
 40
1.0
  9
$PROXYGRAPHICS
 70
     0
  9
$MEASUREMENT
 70
     0
  9
$CELWEIGHT
370
     0
  9
$ENDCAPS
280
     0
  9
$JOINSTYLE
280
     0
  9
$LWDISPLAY
290
     0
  9
$INSUNITS
 70
     5
  9
$HYPERLINKBASE
  1

  9
$XEDIT
290
     1
  9
$CEPSNTYPE
380
     0
  9
$PSTYLEMODE
290
     1
  9
$FINGERPRINTGUID
  2

  9
$VERSIONGUID
  2

  9
$EXTNAMES
290
     1
  9
$PSVPSCALE
 40
0.0
  0
ENDSEC
  0
SECTION
  2
CLASSES
  0
CLASS
  1
LWPOLYLINE
  2
AcDbPolyline
  3
AutoCAD 2000
 90
    32768
280
     0
281
     1
  0
CLASS
  1
IMAGE
  2
AcDbRasterImage
  3
ISM
 90
    32895
280
     0
281
     1
  0
CLASS
  1
OLE2FRAME
  2
AcDbOle2Frame
  3
AutoCAD 2000
 90
    32768
280
     0
281
     1
  0
CLASS
  1
HATCH
  2
AcDbHatch
  3
AutoCAD 2000
 90
    32768
280
     0
281
     1
  0
CLASS
  1
DICTIONARYVAR
  2
AcDbDictionaryVar
  3
AutoCAD 2000
 90
    32768
280
     0
281
     0
  0
CLASS
  1
RASTERVARIABLES
  2
AcDbRasterVariables
  3
ISM
 90
    32768
280
     0
281
     0
  0
CLASS
  1
IMAGEDEF
  2
AcDbRasterImageDef
  3
ISM
 90
    32768
280
     0
281
     0
  0
CLASS
  1
IMAGEDEF_REACTOR
  2
AcDbRasterImageDefReactor
  3
ISM
 90
    32769
280
     0
281
     0
  0
CLASS
  1
IDBUFFER
  2
AcDbIdBuffer
  3
AutoCAD 2000
 90
    32768
280
     0
281
     0
  0
CLASS
  1
SPATIAL_FILTER
  2
AcDbSpatialFilter
  3
AutoCAD 2000
 90
    32768
280
     0
281
     0
  0
CLASS
  1
XRECORD
  2
AcDbXrecord
  3
AutoCAD 2000
 90
    32768
280
     0
281
     0
  0
CLASS
  1
SORTENTSTABLE
  2
AcDbSortentsTable
  3
AutoCAD 2000
 90
    32768
280
     0
281
     0
  0
CLASS
  1
LAYER_INDEX
  2
AcDbLayerIndex
  3
AutoCAD 2000
 90
    32768
280
     0
281
     0
  0
CLASS
  1
SPATIAL_INDEX
  2
AcDbSpatialIndex
  3
AutoCAD 2000
 90
    32768
280
     0
281
     0
  0
CLASS
  1
OBJECT_PTR
  2
CAseDLPNTableRecord
  3
"ASE-LPNTableRecord"
 90
    32769
280
     0
281
     0
  0
CLASS
  1
LAYOUT
  2
AcDbLayout
  3
AutoCAD 2000
 90
        0
280
     0
281
     0
  0
CLASS
  1
PLOTSETTINGS
  2
AcDbPlotSettings
  3
AutoCAD 2000
 90
    32768
280
     0
281
     0
  0
CLASS
  1
ACDBDICTIONARYWDFLT
  2
AcDbDictionaryWithDefault
  3
AutoCAD 2000
 90
        0
280
     0
281
     0
  0
CLASS
  1
ACDBPLACEHOLDER
  2
AcDbPlaceHolder
  3
AutoCAD 2000
 90
        0
280
     0
281
     0
  0
CLASS
  1
VBA_PROJECT
  2
AcDbVbaProject
  3
acadvba
 90
    32768
280
     0
281
     0
  0
CLASS
  1
WIPEOUT
  2
AcDbWipeout
  3
WipeOut|AutoCAD Express Tool|expresstools@autodesk.com
 90
    32895
280
     0
281
     1
  0
CLASS
  1
WIPEOUTVARIABLES
  2
AcDbWipeoutVariables
  3
WipeOut|AutoCAD Express Tool|expresstools@autodesk.com
 90
        0
280
     0
281
     0
  0
CLASS
  1
RTEXT
  2
RText
  3
RText|AutoCAD Express Tool|expresstools@autodesk.com
 90
    32768
280
     0
281
     1
  0
CLASS
  1
ARCALIGNEDTEXT
  2
AcDbArcAlignedText
  3
ATEXT|AutoCAD Express Tool|expresstools@autodesk.com
 90
    32768
280
     0
281
     1
  0
ENDSEC
  0
SECTION
  2
TABLES
  0
TABLE
  2
VPORT
  5
7
100
AcDbSymbolTable
 70
     1
  0
VPORT
  5
15
100
AcDbSymbolTableRecord
100
AcDbViewportTableRecord
  2
*ACTIVE
 70
     0
 10
0.0
 20
0.0
 11
1.0
 21
1.0
 12
6.591288
 22
4.579184
 13
0.0
 23
0.0
 14
1.0
 24
1.0
 15
0.0
 25
0.0
 16
0.0
 26
0.0
 36
1.0
 17
0.0
 27
0.0
 37
0.0
 40
9.158369
 41
0.688564
 42
50.0
 43
0.0
 44
0.0
 50
0.0
 51
0.0
 71
     0
 72
   100
 73
     1
 74
     1
 75
     0
 76
     0
 77
     0
 78
     0
281
     0
 65
     0
110
0.0
120
0.0
130
0.0
111
1.0
121
0.0
131
0.0
112
0.0
122
1.0
132
0.0
345
0
346
0
 79
     0
146
0.0
  0
ENDTAB
  0
TABLE
  2
LTYPE
  5
4
100
AcDbSymbolTable
 70
     3
  0
LTYPE
  5
11
100
AcDbSymbolTableRecord
100
AcDbLinetypeTableRecord
  2
ByBlock
 70
    64
  3

 72
    65
 73
     0
 40
0.0
  0
LTYPE
  5
12
100
AcDbSymbolTableRecord
100
AcDbLinetypeTableRecord
  2
ByLayer
 70
    64
  3

 72
    65
 73
     0
 40
0.0
  0
LTYPE
  5
13
100
AcDbSymbolTableRecord
100
AcDbLinetypeTableRecord
  2
Continuous
 70
    64
  3
Solid line
 72
    65
 73
     0
 40
0.0
  0
ENDTAB
  0
TABLE
  2
LAYER
  5
2
100
AcDbSymbolTable
 70
     2
  0
LAYER
  5
14
100
AcDbSymbolTableRecord
100
AcDbLayerTableRecord
  2
0
 70
     0
 62
     7
  6
Continuous
290
     1
370
    -3
390
1D
  0
LAYER
  5
24
100
AcDbSymbolTableRecord
100
AcDbLayerTableRecord
  2
Layer 1
 70
     0
 62
     7
  6
Continuous
290
     1
370
    -3
390
1F
  0
ENDTAB
  0
TABLE
  2
STYLE
  5
3
100
AcDbSymbolTable
 70
     1
  0
STYLE
  5
17
100
AcDbSymbolTableRecord
100
AcDbTextStyleTableRecord
  2
Standard
 70
     0
 40
0.0
 41
1.0
 50
0.0
 71
     0
 42
0.0
  3
txt
  4

  0
ENDTAB
  0
TABLE
  2
VIEW
  5
5
100
AcDbSymbolTable
 70
     0
  0
ENDTAB
  0
TABLE
  2
UCS
  5
6
100
AcDbSymbolTable
 70
     0
  0
ENDTAB
  0
TABLE
  2
APPID
  5
8
100
AcDbSymbolTable
 70
     1
  0
APPID
  5
16
100
AcDbSymbolTableRecord
100
AcDbRegAppTableRecord
  2
ACAD
 70
     0
  0
ENDTAB
  0
TABLE
  2
DIMSTYLE
  5
9
100
AcDbSymbolTable
 70
     1
100
AcDbDimStyleTable
 71
     0
  0
DIMSTYLE
105
18
100
AcDbSymbolTableRecord
100
AcDbDimStyleTableRecord
  2
Standard
 70
     0
  3

  4

 40
1.0
 41
0.18
 42
0.0625
 43
0.38
 44
0.18
 45
0.0
 46
0.0
 47
0.0
 48
0.0
 71
     0
 72
     0
 73
     1
 74
     1
 75
     0
 76
     0
 77
     0
 78
     0
 79
     0
140
0.18
141
0.09
142
0.0
143
25.4
144
1.0
145
0.0
146
1.0
147
0.09
148
0.0
170
     0
171
     2
172
     0
173
     0
174
     0
175
     0
176
     0
177
     0
178
     0
179
     0
271
     4
272
     4
273
     2
274
     2
275
     0
276
     0
277
     2
278
    46
279
     0
280
     0
281
     0
282
     0
283
     1
284
     0
285
     0
286
     0
288
     0
340
17
341
0
342
0
343
0
344
0
371
    -2
372
    -2
  0
ENDTAB
  0
TABLE
  2
BLOCK_RECORD
  5
1
100
AcDbSymbolTable
 70
     0
  0
BLOCK_RECORD
  5
A
100
AcDbSymbolTableRecord
100
AcDbBlockTableRecord
  2
*MODEL_SPACE
340
20
  0
BLOCK_RECORD
  5
B
100
AcDbSymbolTableRecord
100
AcDbBlockTableRecord
  2
*PAPER_SPACE
340
21
  0
ENDTAB
  0
ENDSEC
  0
SECTION
  2
BLOCKS
  0
BLOCK
  5
D
100
AcDbEntity
  8
0
100
AcDbBlockBegin
  2
*MODEL_SPACE
 70
     0
 10
0.0
 20
0.0
 30
0.0
  3
*MODEL_SPACE
  1

  0
ENDBLK
  5
E
100
AcDbEntity
  8
0
100
AcDbBlockEnd
  0
BLOCK
  5
F
100
AcDbEntity
 67
     1
  8
0
100
AcDbBlockBegin
  2
*PAPER_SPACE
 70
     0
 10
0.0
 20
0.0
 30
0.0
  3
*PAPER_SPACE
  1

  0
ENDBLK
  5
10
100
AcDbEntity
 67
     1
  8
0
100
AcDbBlockEnd
  0
ENDSEC
  0
SECTION
  2
ENTITIES
  0
SPLINE
  5
25
100
AcDbEntity
  8
Layer 1
 62
   178
100
AcDbSpline
210
0.0
220
0.0
230
1.0
 70
     1
 71
     3
 72
    40
 73
    36
 74
     0
 42
0.0000000001
 43
0.0000000001
 40
0.0
 40
0.0
 40
0.0
 40
0.0
 40
0.1111111111111111
 40
0.1111111111111111
 40
0.1111111111111111
 40
0.1111111111111111
 40
0.2222222222222222
 40
0.2222222222222222
 40
0.2222222222222222
 40
0.2222222222222222
 40
0.3333333333333333
 40
0.3333333333333333
 40
0.3333333333333333
 40
0.3333333333333333
 40
0.4444444444444444
 40
0.4444444444444444
 40
0.4444444444444444
 40
0.4444444444444444
 40
0.5555555555555556
 40
0.5555555555555556
 40
0.5555555555555556
 40
0.5555555555555556
 40
0.6666666666666667
 40
0.6666666666666667
 40
0.6666666666666667
 40
0.6666666666666667
 40
0.7777777777777779
 40
0.7777777777777779
 40
0.7777777777777779
 40
0.7777777777777779
 40
0.8888888888888891
 40
0.8888888888888891
 40
0.8888888888888891
 40
0.8888888888888891
 40
1.0
 40
1.0
 40
1.0
 40
1.0
 10
-0.49697
 20
12.68915
 30
0.0
 10
0.9663000000000001
 20
12.601039999999999
 30
0.0
 10
1.8867100000000001
 20
12.42859
 30
0.0
 10
1.8867100000000001
 20
12.262180000000001
 30
0.0
 10
1.8867100000000001
 20
12.262180000000001
 30
0.0
 10
1.8867100000000001
 20
12.008800000000001
 30
0.0
 10
-0.33521
 20
11.80045
 30
0.0
 10
-3.1778
 20
11.77627
 30
0.0
 10
-3.1778
 20
11.77627
 30
0.0
 10
-3.1778
 20
11.77627
 30
0.0
 10
-3.09857
 20
11.99417
 30
0.0
 10
-3.09857
 20
11.99417
 30
0.0
 10
-3.09857
 20
11.99417
 30
0.0
 10
-1.9130199999999999
 20
12.00018
 30
0.0
 10
-0.7005900000000001
 20
12.02055
 30
0.0
 10
0.20921
 20
12.067399999999999
 30
0.0
 10
0.20921
 20
12.067399999999999
 30
0.0
 10
1.0946199999999999
 20
12.11298
 30
0.0
 10
1.70238
 20
12.15082
 30
0.0
 10
1.7002600000000001
 20
12.26801
 30
0.0
 10
1.7002600000000001
 20
12.26801
 30
0.0
 10
1.6984900000000001
 20
12.366099999999999
 30
0.0
 10
0.80226
 20
12.443770000000001
 30
0.0
 10
-0.62085
 20
12.465920000000001
 30
0.0
 10
-0.62085
 20
12.465920000000001
 30
0.0
 10
-0.62085
 20
12.465920000000001
 30
0.0
 10
-0.87034
 20
12.470269999999999
 30
0.0
 10
-0.87034
 20
12.470269999999999
 30
0.0
 10
-0.87034
 20
12.470269999999999
 30
0.0
 10
-0.87034
 20
12.470269999999999
 30
0.0
 10
-0.79555
 20
12.70458
 30
0.0
 10
-0.79555
 20
12.70458
 30
0.0
 10
-0.79555
 20
12.70458
 30
0.0
 10
-0.67691
 20
12.69909
 30
0.0
 10
-0.57608
 20
12.69393
 30
0.0
 10
-0.49697
 20
12.68915
 30
0.0
  0
SPLINE
  5
26
100
AcDbEntity
  8
Layer 1
 62
   178
100
AcDbSpline
210
0.0
220
0.0
230
1.0
 70
     1
 71
     3
 72
    32
 73
    28
 74
     0
 42
0.0000000001
 43
0.0000000001
 40
0.0
 40
0.0
 40
0.0
 40
0.0
 40
0.1428571428571429
 40
0.1428571428571429
 40
0.1428571428571429
 40
0.1428571428571429
 40
0.2857142857142857
 40
0.2857142857142857
 40
0.2857142857142857
 40
0.2857142857142857
 40
0.4285714285714286
 40
0.4285714285714286
 40
0.4285714285714286
 40
0.4285714285714286
 40
0.5714285714285714
 40
0.5714285714285714
 40
0.5714285714285714
 40
0.5714285714285714
 40
0.7142857142857142
 40
0.7142857142857142
 40
0.7142857142857142
 40
0.7142857142857142
 40
0.857142857142857
 40
0.857142857142857
 40
0.857142857142857
 40
0.857142857142857
 40
1.0
 40
1.0
 40
1.0
 40
1.0
 10
-7.5417899999999998
 20
11.84975
 30
0.0
 10
-8.6495800000000003
 20
11.9171
 30
0.0
 10
-9.3443900000000006
 20
12.040509999999999
 30
0.0
 10
-9.3510299999999997
 20
12.262180000000001
 30
0.0
 10
-9.3510299999999997
 20
12.262180000000001
 30
0.0
 10
-9.3680699999999995
 20
12.828379999999999
 30
0.0
 10
-4.8292999999999999
 20
12.821490000000001
 30
0.0
 10
-2.17008
 20
12.75215
 30
0.0
 10
-2.17008
 20
12.75215
 30
0.0
 10
-2.17008
 20
12.75215
 30
0.0
 10
-2.2759
 20
12.494289999999999
 30
0.0
 10
-2.2759
 20
12.494289999999999
 30
0.0
 10
-2.2759
 20
12.494289999999999
 30
0.0
 10
-3.2960500000000001
 20
12.50947
 30
0.0
 10
-4.5950300000000004
 20
12.522399999999999
 30
0.0
 10
-5.7920699999999998
 20
12.511369999999999
 30
0.0
 10
-5.7920699999999998
 20
12.511369999999999
 30
0.0
 10
-7.6323100000000004
 20
12.49442
 30
0.0
 10
-9.2299399999999991
 20
12.41696
 30
0.0
 10
-9.2284199999999998
 20
12.25212
 30
0.0
 10
-9.2284199999999998
 20
12.25212
 30
0.0
 10
-9.2273200000000006
 20
12.134790000000001
 30
0.0
 10
-8.5325900000000008
 20
12.07408
 30
0.0
 10
-7.4595500000000001
 20
12.0359
 30
0.0
 10
-7.4595500000000001
 20
12.0359
 30
0.0
 10
-7.4595500000000001
 20
12.0359
 30
0.0
 10
-7.5417899999999998
 20
11.84975
 30
0.0
 10
-7.5417899999999998
 20
11.84975
 30
0.0
  0
SPLINE
  5
27
100
AcDbEntity
  8
Layer 1
 62
   178
100
AcDbSpline
210
0.0
220
0.0
230
1.0
 70
     1
 71
     3
 72
    48
 73
    44
 74
     0
 42
0.0000000001
 43
0.0000000001
 40
0.0
 40
0.0
 40
0.0
 40
0.0
 40
0.0909090909090909
 40
0.0909090909090909
 40
0.0909090909090909
 40
0.0909090909090909
 40
0.1818181818181818
 40
0.1818181818181818
 40
0.1818181818181818
 40
0.1818181818181818
 40
0.2727272727272727
 40
0.2727272727272727
 40
0.2727272727272727
 40
0.2727272727272727
 40
0.3636363636363637
 40
0.3636363636363637
 40
0.3636363636363637
 40
0.3636363636363637
 40
0.4545454545454546
 40
0.4545454545454546
 40
0.4545454545454546
 40
0.4545454545454546
 40
0.5454545454545455
 40
0.5454545454545455
 40
0.5454545454545455
 40
0.5454545454545455
 40
0.6363636363636365
 40
0.6363636363636365
 40
0.6363636363636365
 40
0.6363636363636365
 40
0.7272727272727274
 40
0.7272727272727274
 40
0.7272727272727274
 40
0.7272727272727274
 40
0.8181818181818183
 40
0.8181818181818183
 40
0.8181818181818183
 40
0.8181818181818183
 40
0.9090909090909093
 40
0.9090909090909093
 40
0.9090909090909093
 40
0.9090909090909093
 40
1.0
 40
1.0
 40
1.0
 40
1.0
 10
-5.8829799999999999
 20
10.77454
 30
0.0
 10
-5.8829799999999999
 20
10.77454
 30
0.0
 10
-6.3455399999999997
 20
9.5116800000000001
 30
0.0
 10
-6.3455399999999997
 20
9.5116800000000001
 30
0.0
 10
-6.3455399999999997
 20
9.5116800000000001
 30
0.0
 10
-6.3455399999999997
 20
9.5116800000000001
 30
0.0
 10
-6.0579900000000002
 20
9.5116800000000001
 30
0.0
 10
-6.0579900000000002
 20
9.5116800000000001
 30
0.0
 10
-6.0579900000000002
 20
9.5116800000000001
 30
0.0
 10
-6.0579900000000002
 20
9.5116800000000001
 30
0.0
 10
-5.88002
 20
10.00206
 30
0.0
 10
-5.88002
 20
10.00206
 30
0.0
 10
-5.88002
 20
10.00206
 30
0.0
 10
-5.8467799999999999
 20
9.8815100000000005
 30
0.0
 10
-5.7483599999999999
 20
9.8614700000000006
 30
0.0
 10
-5.6826499999999998
 20
9.8614700000000006
 30
0.0
 10
-5.6826499999999998
 20
9.8614700000000006
 30
0.0
 10
-5.56928
 20
9.8614700000000006
 30
0.0
 10
-5.4519099999999998
 20
9.9091500000000003
 30
0.0
 10
-5.3647200000000002
 20
9.9801900000000003
 30
0.0
 10
-5.3647200000000002
 20
9.9801900000000003
 30
0.0
 10
-5.2627899999999999
 20
10.06401
 30
0.0
 10
-5.1722099999999998
 20
10.19336
 30
0.0
 10
-5.1223799999999997
 20
10.38829
 30
0.0
 10
-5.1223799999999997
 20
10.38829
 30
0.0
 10
-5.0990799999999998
 20
10.47939
 30
0.0
 10
-5.0814599999999999
 20
10.599640000000001
 30
0.0
 10
-5.13002
 20
10.69256
 30
0.0
 10
-5.13002
 20
10.69256
 30
0.0
 10
-5.16418
 20
10.758139999999999
 30
0.0
 10
-5.23048
 20
10.80733
 30
0.0
 10
-5.3438600000000003
 20
10.80733
 30
0.0
 10
-5.3438600000000003
 20
10.80733
 30
0.0
 10
-5.5048899999999996
 20
10.80733
 30
0.0
 10
-5.6117400000000002
 20
10.71077
 30
0.0
 10
-5.6400800000000002
 20
10.683439999999999
 30
0.0
 10
-5.6400800000000002
 20
10.683439999999999
 30
0.0
 10
-5.6400800000000002
 20
10.683439999999999
 30
0.0
 10
-5.6069300000000002
 20
10.77454
 30
0.0
 10
-5.6069300000000002
 20
10.77454
 30
0.0
 10
-5.6069300000000002
 20
10.77454
 30
0.0
 10
-5.6069300000000002
 20
10.77454
 30
0.0
 10
-5.8829799999999999
 20
10.77454
 30
0.0
 10
-5.8829799999999999
 20
10.77454
 30
0.0
  0
SPLINE
  5
28
100
AcDbEntity
  8
Layer 1
 62
   178
100
AcDbSpline
210
0.0
220
0.0
230
1.0
 70
     1
 71
     3
 72
    36
 73
    32
 74
     0
 42
0.0000000001
 43
0.0000000001
 40
0.0
 40
0.0
 40
0.0
 40
0.0
 40
0.125
 40
0.125
 40
0.125
 40
0.125
 40
0.25
 40
0.25
 40
0.25
 40
0.25
 40
0.375
 40
0.375
 40
0.375
 40
0.375
 40
0.5
 40
0.5
 40
0.5
 40
0.5
 40
0.625
 40
0.625
 40
0.625
 40
0.625
 40
0.75
 40
0.75
 40
0.75
 40
0.75
 40
0.875
 40
0.875
 40
0.875
 40
0.875
 40
1.0
 40
1.0
 40
1.0
 40
1.0
 10
-5.6779400000000004
 20
10.12412
 30
0.0
 10
-5.7157299999999998
 20
10.12412
 30
0.0
 10
-5.7544899999999997
 20
10.133229999999999
 30
0.0
 10
-5.7775499999999997
 20
10.171480000000001
 30
0.0
 10
-5.7775499999999997
 20
10.171480000000001
 30
0.0
 10
-5.8029799999999998
 20
10.21339
 30
0.0
 10
-5.7960500000000001
 20
10.26624
 30
0.0
 10
-5.7848699999999997
 20
10.309950000000001
 30
0.0
 10
-5.7848699999999997
 20
10.309950000000001
 30
0.0
 10
-5.7680999999999996
 20
10.375529999999999
 30
0.0
 10
-5.7341899999999999
 20
10.437480000000001
 30
0.0
 10
-5.68851
 20
10.481210000000001
 30
0.0
 10
-5.68851
 20
10.481210000000001
 30
0.0
 10
-5.6301699999999997
 20
10.535869999999999
 30
0.0
 10
-5.5719700000000003
 20
10.544969999999999
 30
0.0
 10
-5.5325300000000004
 20
10.544969999999999
 30
0.0
 10
-5.5325300000000004
 20
10.544969999999999
 30
0.0
 10
-5.4914399999999999
 20
10.544969999999999
 30
0.0
 10
-5.4576200000000004
 20
10.535869999999999
 30
0.0
 10
-5.4345600000000003
 20
10.4976
 30
0.0
 10
-5.4345600000000003
 20
10.4976
 30
0.0
 10
-5.4114599999999999
 20
10.459350000000001
 30
0.0
 10
-5.4127999999999998
 20
10.415620000000001
 30
0.0
 10
-5.4272400000000003
 20
10.35914
 30
0.0
 10
-5.4272400000000003
 20
10.35914
 30
0.0
 10
-5.4472800000000001
 20
10.280799999999999
 30
0.0
 10
-5.4847000000000001
 20
10.22433
 30
0.0
 10
-5.5235900000000004
 20
10.187900000000001
 30
0.0
 10
-5.5235900000000004
 20
10.187900000000001
 30
0.0
 10
-5.5798300000000003
 20
10.13505
 30
0.0
 10
-5.6368499999999999
 20
10.12412
 30
0.0
 10
-5.6779400000000004
 20
10.12412
 30
0.0
  0
SPLINE
  5
29
100
AcDbEntity
  8
Layer 1
 62
   178
100
AcDbSpline
210
0.0
220
0.0
230
1.0
 70
     1
 71
     3
 72
    36
 73
    32
 74
     0
 42
0.0000000001
 43
0.0000000001
 40
0.0
 40
0.0
 40
0.0
 40
0.0
 40
0.125
 40
0.125
 40
0.125
 40
0.125
 40
0.25
 40
0.25
 40
0.25
 40
0.25
 40
0.375
 40
0.375
 40
0.375
 40
0.375
 40
0.5
 40
0.5
 40
0.5
 40
0.5
 40
0.625
 40
0.625
 40
0.625
 40
0.625
 40
0.75
 40
0.75
 40
0.75
 40
0.75
 40
0.875
 40
0.875
 40
0.875
 40
0.875
 40
1.0
 40
1.0
 40
1.0
 40
1.0
 10
-4.4006800000000004
 20
10.80733
 30
0.0
 10
-4.5075000000000003
 20
10.80733
 30
0.0
 10
-4.6330200000000001
 20
10.78547
 30
0.0
 10
-4.75962
 20
10.70166
 30
0.0
 10
-4.75962
 20
10.70166
 30
0.0
 10
-4.8728400000000001
 20
10.62513
 30
0.0
 10
-4.9981600000000004
 20
10.48851
 30
0.0
 10
-5.0512699999999997
 20
10.280799999999999
 30
0.0
 10
-5.0512699999999997
 20
10.280799999999999
 30
0.0
 10
-5.0875899999999996
 20
10.13869
 30
0.0
 10
-5.0664899999999999
 20
10.03486
 30
0.0
 10
-5.0017800000000001
 20
9.9601500000000005
 30
0.0
 10
-5.0017800000000001
 20
9.9601500000000005
 30
0.0
 10
-4.9291700000000001
 20
9.8778699999999997
 30
0.0
 10
-4.8199899999999998
 20
9.8614700000000006
 30
0.0
 10
-4.7246800000000002
 20
9.8614700000000006
 30
0.0
 10
-4.7246800000000002
 20
9.8614700000000006
 30
0.0
 10
-4.6178699999999999
 20
9.8614700000000006
 30
0.0
 10
-4.4923299999999999
 20
9.8833300000000008
 30
0.0
 10
-4.3656800000000002
 20
9.9674300000000002
 30
0.0
 10
-4.3656800000000002
 20
9.9674300000000002
 30
0.0
 10
-4.25244
 20
10.043950000000001
 30
0.0
 10
-4.1271399999999998
 20
10.1806
 30
0.0
 10
-4.0740299999999996
 20
10.38829
 30
0.0
 10
-4.0740299999999996
 20
10.38829
 30
0.0
 10
-4.0377000000000001
 20
10.5304
 30
0.0
 10
-4.0587900000000001
 20
10.63425
 30
0.0
 10
-4.1234900000000003
 20
10.70895
 30
0.0
 10
-4.1234900000000003
 20
10.70895
 30
0.0
 10
-4.19618
 20
10.790929999999999
 30
0.0
 10
-4.3053600000000003
 20
10.80733
 30
0.0
 10
-4.4006800000000004
 20
10.80733
 30
0.0
  0
SPLINE
  5
2A
100
AcDbEntity
  8
Layer 1
 62
   178
100
AcDbSpline
210
0.0
220
0.0
230
1.0
 70
     1
 71
     3
 72
    36
 73
    32
 74
     0
 42
0.0000000001
 43
0.0000000001
 40
0.0
 40
0.0
 40
0.0
 40
0.0
 40
0.125
 40
0.125
 40
0.125
 40
0.125
 40
0.25
 40
0.25
 40
0.25
 40
0.25
 40
0.375
 40
0.375
 40
0.375
 40
0.375
 40
0.5
 40
0.5
 40
0.5
 40
0.5
 40
0.625
 40
0.625
 40
0.625
 40
0.625
 40
0.75
 40
0.75
 40
0.75
 40
0.75
 40
0.875
 40
0.875
 40
0.875
 40
0.875
 40
1.0
 40
1.0
 40
1.0
 40
1.0
 10
-4.6461899999999998
 20
10.09132
 30
0.0
 10
-4.69876
 20
10.09132
 30
0.0
 10
-4.7321400000000002
 20
10.115019999999999
 30
0.0
 10
-4.74817
 20
10.14235
 30
0.0
 10
-4.74817
 20
10.14235
 30
0.0
 10
-4.7736000000000001
 20
10.184240000000001
 30
0.0
 10
-4.7641
 20
10.240729999999999
 30
0.0
 10
-4.7524499999999996
 20
10.28628
 30
0.0
 10
-4.7524499999999996
 20
10.28628
 30
0.0
 10
-4.7296399999999998
 20
10.375529999999999
 30
0.0
 10
-4.6870799999999999
 20
10.46481
 30
0.0
 10
-4.6292
 20
10.517659999999999
 30
0.0
 10
-4.6292
 20
10.517659999999999
 30
0.0
 10
-4.5924199999999997
 20
10.55227
 30
0.0
 10
-4.5415400000000004
 20
10.577769999999999
 30
0.0
 10
-4.4807499999999996
 20
10.577769999999999
 30
0.0
 10
-4.4807499999999996
 20
10.577769999999999
 30
0.0
 10
-4.4281600000000001
 20
10.577769999999999
 30
0.0
 10
-4.3947599999999998
 20
10.55409
 30
0.0
 10
-4.3787700000000003
 20
10.526759999999999
 30
0.0
 10
-4.3787700000000003
 20
10.526759999999999
 30
0.0
 10
-4.3634500000000003
 20
10.503080000000001
 30
0.0
 10
-4.3532700000000002
 20
10.459350000000001
 30
0.0
 10
-4.3728499999999997
 20
10.38283
 30
0.0
 10
-4.3728499999999997
 20
10.38283
 30
0.0
 10
-4.3942699999999997
 20
10.29903
 30
0.0
 10
-4.4419599999999999
 20
10.20246
 30
0.0
 10
-4.4977299999999998
 20
10.151450000000001
 30
0.0
 10
-4.4977299999999998
 20
10.151450000000001
 30
0.0
 10
-4.5256100000000004
 20
10.12595
 30
0.0
 10
-4.5755400000000002
 20
10.09132
 30
0.0
 10
-4.6461899999999998
 20
10.09132
 30
0.0
  0
SPLINE
  5
2B
100
AcDbEntity
  8
Layer 1
 62
   178
100
AcDbSpline
210
0.0
220
0.0
230
1.0
 70
     1
 71
     3
 72
    56
 73
    52
 74
     0
 42
0.0000000001
 43
0.0000000001
 40
0.0
 40
0.0
 40
0.0
 40
0.0
 40
0.0769230769230769
 40
0.0769230769230769
 40
0.0769230769230769
 40
0.0769230769230769
 40
0.1538461538461539
 40
0.1538461538461539
 40
0.1538461538461539
 40
0.1538461538461539
 40
0.2307692307692308
 40
0.2307692307692308
 40
0.2307692307692308
 40
0.2307692307692308
 40
0.3076923076923077
 40
0.3076923076923077
 40
0.3076923076923077
 40
0.3076923076923077
 40
0.3846153846153846
 40
0.3846153846153846
 40
0.3846153846153846
 40
0.3846153846153846
 40
0.4615384615384616
 40
0.4615384615384616
 40
0.4615384615384616
 40
0.4615384615384616
 40
0.5384615384615386
 40
0.5384615384615386
 40
0.5384615384615386
 40
0.5384615384615386
 40
0.6153846153846154
 40
0.6153846153846154
 40
0.6153846153846154
 40
0.6153846153846154
 40
0.6923076923076923
 40
0.6923076923076923
 40
0.6923076923076923
 40
0.6923076923076923
 40
0.7692307692307692
 40
0.7692307692307692
 40
0.7692307692307692
 40
0.7692307692307692
 40
0.846153846153846
 40
0.846153846153846
 40
0.846153846153846
 40
0.846153846153846
 40
0.9230769230769229
 40
0.9230769230769229
 40
0.9230769230769229
 40
0.9230769230769229
 40
1.0
 40
1.0
 40
1.0
 40
1.0
 10
-4.17753
 20
9.8945699999999999
 30
0.0
 10
-4.17753
 20
9.8945699999999999
 30
0.0
 10
-3.90449
 20
9.8945699999999999
 30
0.0
 10
-3.90449
 20
9.8945699999999999
 30
0.0
 10
-3.90449
 20
9.8945699999999999
 30
0.0
 10
-3.90449
 20
9.8945699999999999
 30
0.0
 10
-3.6589800000000001
 20
10.379189999999999
 30
0.0
 10
-3.6589800000000001
 20
10.379189999999999
 30
0.0
 10
-3.6589800000000001
 20
10.379189999999999
 30
0.0
 10
-3.6589800000000001
 20
10.379189999999999
 30
0.0
 10
-3.67116
 20
9.8945699999999999
 30
0.0
 10
-3.67116
 20
9.8945699999999999
 30
0.0
 10
-3.67116
 20
9.8945699999999999
 30
0.0
 10
-3.67116
 20
9.8945699999999999
 30
0.0
 10
-3.4706999999999999
 20
9.8945699999999999
 30
0.0
 10
-3.4706999999999999
 20
9.8945699999999999
 30
0.0
 10
-3.4706999999999999
 20
9.8945699999999999
 30
0.0
 10
-3.4706999999999999
 20
9.8945699999999999
 30
0.0
 10
-3.1331699999999998
 20
10.379189999999999
 30
0.0
 10
-3.1331699999999998
 20
10.379189999999999
 30
0.0
 10
-3.1331699999999998
 20
10.379189999999999
 30
0.0
 10
-3.1331699999999998
 20
10.379189999999999
 30
0.0
 10
-3.2373799999999999
 20
9.8945699999999999
 30
0.0
 10
-3.2373799999999999
 20
9.8945699999999999
 30
0.0
 10
-3.2373799999999999
 20
9.8945699999999999
 30
0.0
 10
-3.2373799999999999
 20
9.8945699999999999
 30
0.0
 10
-2.9711799999999999
 20
9.8945699999999999
 30
0.0
 10
-2.9711799999999999
 20
9.8945699999999999
 30
0.0
 10
-2.9711799999999999
 20
9.8945699999999999
 30
0.0
 10
-2.9711799999999999
 20
9.8945699999999999
 30
0.0
 10
-2.7757499999999999
 20
10.77454
 30
0.0
 10
-2.7757499999999999
 20
10.77454
 30
0.0
 10
-2.7757499999999999
 20
10.77454
 30
0.0
 10
-2.7757499999999999
 20
10.77454
 30
0.0
 10
-3.08467
 20
10.77454
 30
0.0
 10
-3.08467
 20
10.77454
 30
0.0
 10
-3.08467
 20
10.77454
 30
0.0
 10
-3.08467
 20
10.77454
 30
0.0
 10
-3.4385400000000002
 20
10.251659999999999
 30
0.0
 10
-3.4385400000000002
 20
10.251659999999999
 30
0.0
 10
-3.4385400000000002
 20
10.251659999999999
 30
0.0
 10
-3.4385400000000002
 20
10.251659999999999
 30
0.0
 10
-3.4231600000000002
 20
10.77454
 30
0.0
 10
-3.4231600000000002
 20
10.77454
 30
0.0
 10
-3.4231600000000002
 20
10.77454
 30
0.0
 10
-3.4231600000000002
 20
10.77454
 30
0.0
 10
-3.7320700000000002
 20
10.77454
 30
0.0
 10
-3.7320700000000002
 20
10.77454
 30
0.0
 10
-3.7320700000000002
 20
10.77454
 30
0.0
 10
-3.7320700000000002
 20
10.77454
 30
0.0
 10
-4.17753
 20
9.8945699999999999
 30
0.0
 10
-4.17753
 20
9.8945699999999999
 30
0.0
  0
SPLINE
  5
2C
100
AcDbEntity
  8
Layer 1
 62
   178
100
AcDbSpline
210
0.0
220
0.0
230
1.0
 70
     1
 71
     3
 72
    44
 73
    40
 74
     0
 42
0.0000000001
 43
0.0000000001
 40
0.0
 40
0.0
 40
0.0
 40
0.0
 40
0.1
 40
0.1
 40
0.1
 40
0.1
 40
0.2
 40
0.2
 40
0.2
 40
0.2
 40
0.3
 40
0.3
 40
0.3
 40
0.3
 40
0.4
 40
0.4
 40
0.4
 40
0.4
 40
0.5
 40
0.5
 40
0.5
 40
0.5
 40
0.6
 40
0.6
 40
0.6
 40
0.6
 40
0.7
 40
0.7
 40
0.7
 40
0.7
 40
0.7999999999999999
 40
0.7999999999999999
 40
0.7999999999999999
 40
0.7999999999999999
 40
0.8999999999999999
 40
0.8999999999999999
 40
0.8999999999999999
 40
0.8999999999999999
 40
1.0
 40
1.0
 40
1.0
 40
1.0
 10
-2.5342199999999999
 20
10.77454
 30
0.0
 10
-2.5342199999999999
 20
10.77454
 30
0.0
 10
-2.85616
 20
9.8945699999999999
 30
0.0
 10
-2.85616
 20
9.8945699999999999
 30
0.0
 10
-2.85616
 20
9.8945699999999999
 30
0.0
 10
-2.85616
 20
9.8945699999999999
 30
0.0
 10
-2.57681
 20
9.8945699999999999
 30
0.0
 10
-2.57681
 20
9.8945699999999999
 30
0.0
 10
-2.57681
 20
9.8945699999999999
 30
0.0
 10
-2.57681
 20
9.8945699999999999
 30
0.0
 10
-2.1144099999999999
 20
10.379189999999999
 30
0.0
 10
-2.1144099999999999
 20
10.379189999999999
 30
0.0
 10
-2.1144099999999999
 20
10.379189999999999
 30
0.0
 10
-2.1144099999999999
 20
10.379189999999999
 30
0.0
 10
-2.2925499999999999
 20
9.8945699999999999
 30
0.0
 10
-2.2925499999999999
 20
9.8945699999999999
 30
0.0
 10
-2.2925499999999999
 20
9.8945699999999999
 30
0.0
 10
-2.2925499999999999
 20
9.8945699999999999
 30
0.0
 10
-2.0049999999999999
 20
9.8945699999999999
 30
0.0
 10
-2.0049999999999999
 20
9.8945699999999999
 30
0.0
 10
-2.0049999999999999
 20
9.8945699999999999
 30
0.0
 10
-2.0049999999999999
 20
9.8945699999999999
 30
0.0
 10
-1.6830700000000001
 20
10.77454
 30
0.0
 10
-1.6830700000000001
 20
10.77454
 30
0.0
 10
-1.6830700000000001
 20
10.77454
 30
0.0
 10
-1.6830700000000001
 20
10.77454
 30
0.0
 10
-1.9591099999999999
 20
10.77454
 30
0.0
 10
-1.9591099999999999
 20
10.77454
 30
0.0
 10
-1.9591099999999999
 20
10.77454
 30
0.0
 10
-1.9591099999999999
 20
10.77454
 30
0.0
 10
-2.41825
 20
10.302670000000001
 30
0.0
 10
-2.41825
 20
10.302670000000001
 30
0.0
 10
-2.41825
 20
10.302670000000001
 30
0.0
 10
-2.41825
 20
10.302670000000001
 30
0.0
 10
-2.2466699999999999
 20
10.77454
 30
0.0
 10
-2.2466699999999999
 20
10.77454
 30
0.0
 10
-2.2466699999999999
 20
10.77454
 30
0.0
 10
-2.2466699999999999
 20
10.77454
 30
0.0
 10
-2.5342199999999999
 20
10.77454
 30
0.0
 10
-2.5342199999999999
 20
10.77454
 30
0.0
  0
SPLINE
  5
2D
100
AcDbEntity
  8
Layer 1
 62
   178
100
AcDbSpline
210
0.0
220
0.0
230
1.0
 70
     1
 71
     3
 72
    52
 73
    48
 74
     0
 42
0.0000000001
 43
0.0000000001
 40
0.0
 40
0.0
 40
0.0
 40
0.0
 40
0.0833333333333333
 40
0.0833333333333333
 40
0.0833333333333333
 40
0.0833333333333333
 40
0.1666666666666667
 40
0.1666666666666667
 40
0.1666666666666667
 40
0.1666666666666667
 40
0.25
 40
0.25
 40
0.25
 40
0.25
 40
0.3333333333333333
 40
0.3333333333333333
 40
0.3333333333333333
 40
0.3333333333333333
 40
0.4166666666666666
 40
0.4166666666666666
 40
0.4166666666666666
 40
0.4166666666666666
 40
0.4999999999999999
 40
0.4999999999999999
 40
0.4999999999999999
 40
0.4999999999999999
 40
0.5833333333333333
 40
0.5833333333333333
 40
0.5833333333333333
 40
0.5833333333333333
 40
0.6666666666666666
 40
0.6666666666666666
 40
0.6666666666666666
 40
0.6666666666666666
 40
0.75
 40
0.75
 40
0.75
 40
0.75
 40
0.8333333333333334
 40
0.8333333333333334
 40
0.8333333333333334
 40
0.8333333333333334
 40
0.9166666666666667
 40
0.9166666666666667
 40
0.9166666666666667
 40
0.9166666666666667
 40
1.0
 40
1.0
 40
1.0
 40
1.0
 10
-1.8209599999999999
 20
9.8945699999999999
 30
0.0
 10
-1.8209599999999999
 20
9.8945699999999999
 30
0.0
 10
-1.53342
 20
9.8945699999999999
 30
0.0
 10
-1.53342
 20
9.8945699999999999
 30
0.0
 10
-1.53342
 20
9.8945699999999999
 30
0.0
 10
-1.53342
 20
9.8945699999999999
 30
0.0
 10
-1.40408
 20
10.24619
 30
0.0
 10
-1.40408
 20
10.24619
 30
0.0
 10
-1.40408
 20
10.24619
 30
0.0
 10
-1.40408
 20
10.24619
 30
0.0
 10
-1.13951
 20
10.24619
 30
0.0
 10
-1.13951
 20
10.24619
 30
0.0
 10
-1.13951
 20
10.24619
 30
0.0
 10
-1.13951
 20
10.24619
 30
0.0
 10
-1.26885
 20
9.8945699999999999
 30
0.0
 10
-1.26885
 20
9.8945699999999999
 30
0.0
 10
-1.26885
 20
9.8945699999999999
 30
0.0
 10
-1.26885
 20
9.8945699999999999
 30
0.0
 10
-0.98131
 20
9.8945699999999999
 30
0.0
 10
-0.98131
 20
9.8945699999999999
 30
0.0
 10
-0.98131
 20
9.8945699999999999
 30
0.0
 10
-0.98131
 20
9.8945699999999999
 30
0.0
 10
-0.65937
 20
10.77454
 30
0.0
 10
-0.65937
 20
10.77454
 30
0.0
 10
-0.65937
 20
10.77454
 30
0.0
 10
-0.65937
 20
10.77454
 30
0.0
 10
-0.94691
 20
10.77454
 30
0.0
 10
-0.94691
 20
10.77454
 30
0.0
 10
-0.94691
 20
10.77454
 30
0.0
 10
-0.94691
 20
10.77454
 30
0.0
 10
-1.06063
 20
10.46481
 30
0.0
 10
-1.06063
 20
10.46481
 30
0.0
 10
-1.06063
 20
10.46481
 30
0.0
 10
-1.06063
 20
10.46481
 30
0.0
 10
-1.3251599999999999
 20
10.46481
 30
0.0
 10
-1.3251599999999999
 20
10.46481
 30
0.0
 10
-1.3251599999999999
 20
10.46481
 30
0.0
 10
-1.3251599999999999
 20
10.46481
 30
0.0
 10
-1.2114799999999999
 20
10.77454
 30
0.0
 10
-1.2114799999999999
 20
10.77454
 30
0.0
 10
-1.2114799999999999
 20
10.77454
 30
0.0
 10
-1.2114799999999999
 20
10.77454
 30
0.0
 10
-1.49902
 20
10.77454
 30
0.0
 10
-1.49902
 20
10.77454
 30
0.0
 10
-1.49902
 20
10.77454
 30
0.0
 10
-1.49902
 20
10.77454
 30
0.0
 10
-1.8209599999999999
 20
9.8945699999999999
 30
0.0
 10
-1.8209599999999999
 20
9.8945699999999999
 30
0.0
  0
SPLINE
  5
2E
100
AcDbEntity
  8
Layer 1
 62
   178
100
AcDbSpline
210
0.0
220
0.0
230
1.0
 70
     1
 71
     3
 72
    76
 73
    72
 74
     0
 42
0.0000000001
 43
0.0000000001
 40
0.0
 40
0.0
 40
0.0
 40
0.0
 40
0.0555555555555556
 40
0.0555555555555556
 40
0.0555555555555556
 40
0.0555555555555556
 40
0.1111111111111111
 40
0.1111111111111111
 40
0.1111111111111111
 40
0.1111111111111111
 40
0.1666666666666667
 40
0.1666666666666667
 40
0.1666666666666667
 40
0.1666666666666667
 40
0.2222222222222222
 40
0.2222222222222222
 40
0.2222222222222222
 40
0.2222222222222222
 40
0.2777777777777778
 40
0.2777777777777778
 40
0.2777777777777778
 40
0.2777777777777778
 40
0.3333333333333334
 40
0.3333333333333334
 40
0.3333333333333334
 40
0.3333333333333334
 40
0.388888888888889
 40
0.388888888888889
 40
0.388888888888889
 40
0.388888888888889
 40
0.4444444444444445
 40
0.4444444444444445
 40
0.4444444444444445
 40
0.4444444444444445
 40
0.5000000000000001
 40
0.5000000000000001
 40
0.5000000000000001
 40
0.5000000000000001
 40
0.5555555555555557
 40
0.5555555555555557
 40
0.5555555555555557
 40
0.5555555555555557
 40
0.6111111111111113
 40
0.6111111111111113
 40
0.6111111111111113
 40
0.6111111111111113
 40
0.6666666666666669
 40
0.6666666666666669
 40
0.6666666666666669
 40
0.6666666666666669
 40
0.7222222222222224
 40
0.7222222222222224
 40
0.7222222222222224
 40
0.7222222222222224
 40
0.777777777777778
 40
0.777777777777778
 40
0.777777777777778
 40
0.777777777777778
 40
0.8333333333333336
 40
0.8333333333333336
 40
0.8333333333333336
 40
0.8333333333333336
 40
0.8888888888888892
 40
0.8888888888888892
 40
0.8888888888888892
 40
0.8888888888888892
 40
0.9444444444444448
 40
0.9444444444444448
 40
0.9444444444444448
 40
0.9444444444444448
 40
1.0
 40
1.0
 40
1.0
 40
1.0
 10
0.00116
 20
10.77454
 30
0.0
 10
0.00116
 20
10.77454
 30
0.0
 10
-0.13445
 20
10.40469
 30
0.0
 10
-0.13445
 20
10.40469
 30
0.0
 10
-0.13445
 20
10.40469
 30
0.0
 10
-0.13445
 20
10.40469
 30
0.0
 10
-0.21736
 20
10.77454
 30
0.0
 10
-0.21736
 20
10.77454
 30
0.0
 10
-0.21736
 20
10.77454
 30
0.0
 10
-0.21736
 20
10.77454
 30
0.0
 10
-0.53943
 20
10.77454
 30
0.0
 10
-0.53943
 20
10.77454
 30
0.0
 10
-0.53943
 20
10.77454
 30
0.0
 10
-0.53943
 20
10.77454
 30
0.0
 10
-0.4109
 20
10.36462
 30
0.0
 10
-0.4109
 20
10.36462
 30
0.0
 10
-0.4109
 20
10.36462
 30
0.0
 10
-0.4109
 20
10.36462
 30
0.0
 10
-0.90765
 20
9.8945699999999999
 30
0.0
 10
-0.90765
 20
9.8945699999999999
 30
0.0
 10
-0.90765
 20
9.8945699999999999
 30
0.0
 10
-0.90765
 20
9.8945699999999999
 30
0.0
 10
-0.55081
 20
9.8945699999999999
 30
0.0
 10
-0.55081
 20
9.8945699999999999
 30
0.0
 10
-0.55081
 20
9.8945699999999999
 30
0.0
 10
-0.55081
 20
9.8945699999999999
 30
0.0
 10
-0.18021
 20
10.27716
 30
0.0
 10
-0.18021
 20
10.27716
 30
0.0
 10
-0.18021
 20
10.27716
 30
0.0
 10
-0.18021
 20
10.27716
 30
0.0
 10
-0.32076
 20
9.8945699999999999
 30
0.0
 10
-0.32076
 20
9.8945699999999999
 30
0.0
 10
-0.32076
 20
9.8945699999999999
 30
0.0
 10
-0.32076
 20
9.8945699999999999
 30
0.0
 10
-0.04471
 20
9.8945699999999999
 30
0.0
 10
-0.04471
 20
9.8945699999999999
 30
0.0
 10
-0.04471
 20
9.8945699999999999
 30
0.0
 10
-0.04471
 20
9.8945699999999999
 30
0.0
 10
0.09584
 20
10.27716
 30
0.0
 10
0.09584
 20
10.27716
 30
0.0
 10
0.09584
 20
10.27716
 30
0.0
 10
0.09584
 20
10.27716
 30
0.0
 10
0.19356
 20
9.8945699999999999
 30
0.0
 10
0.19356
 20
9.8945699999999999
 30
0.0
 10
0.19356
 20
9.8945699999999999
 30
0.0
 10
0.19356
 20
9.8945699999999999
 30
0.0
 10
0.54189
 20
9.8945699999999999
 30
0.0
 10
0.54189
 20
9.8945699999999999
 30
0.0
 10
0.54189
 20
9.8945699999999999
 30
0.0
 10
0.54189
 20
9.8945699999999999
 30
0.0
 10
0.37973
 20
10.346399999999999
 30
0.0
 10
0.37973
 20
10.346399999999999
 30
0.0
 10
0.37973
 20
10.346399999999999
 30
0.0
 10
0.37973
 20
10.346399999999999
 30
0.0
 10
0.81784
 20
10.77454
 30
0.0
 10
0.81784
 20
10.77454
 30
0.0
 10
0.81784
 20
10.77454
 30
0.0
 10
0.81784
 20
10.77454
 30
0.0
 10
0.4892
 20
10.77454
 30
0.0
 10
0.4892
 20
10.77454
 30
0.0
 10
0.4892
 20
10.77454
 30
0.0
 10
0.4892
 20
10.77454
 30
0.0
 10
0.14158
 20
10.40469
 30
0.0
 10
0.14158
 20
10.40469
 30
0.0
 10
0.14158
 20
10.40469
 30
0.0
 10
0.14158
 20
10.40469
 30
0.0
 10
0.27723
 20
10.77454
 30
0.0
 10
0.27723
 20
10.77454
 30
0.0
 10
0.27723
 20
10.77454
 30
0.0
 10
0.27723
 20
10.77454
 30
0.0
 10
0.00116
 20
10.77454
 30
0.0
 10
0.00116
 20
10.77454
 30
0.0
  0
SPLINE
  5
2F
100
AcDbEntity
  8
Layer 1
 62
   178
100
AcDbSpline
210
0.0
220
0.0
230
1.0
 70
     1
 71
     3
 72
    44
 73
    40
 74
     0
 42
0.0000000001
 43
0.0000000001
 40
0.0
 40
0.0
 40
0.0
 40
0.0
 40
0.1
 40
0.1
 40
0.1
 40
0.1
 40
0.2
 40
0.2
 40
0.2
 40
0.2
 40
0.3
 40
0.3
 40
0.3
 40
0.3
 40
0.4
 40
0.4
 40
0.4
 40
0.4
 40
0.5
 40
0.5
 40
0.5
 40
0.5
 40
0.6
 40
0.6
 40
0.6
 40
0.6
 40
0.7
 40
0.7
 40
0.7
 40
0.7
 40
0.7999999999999999
 40
0.7999999999999999
 40
0.7999999999999999
 40
0.7999999999999999
 40
0.8999999999999999
 40
0.8999999999999999
 40
0.8999999999999999
 40
0.8999999999999999
 40
1.0
 40
1.0
 40
1.0
 40
1.0
 10
0.9378
 20
10.77454
 30
0.0
 10
0.9378
 20
10.77454
 30
0.0
 10
0.61586
 20
9.8945699999999999
 30
0.0
 10
0.61586
 20
9.8945699999999999
 30
0.0
 10
0.61586
 20
9.8945699999999999
 30
0.0
 10
0.61586
 20
9.8945699999999999
 30
0.0
 10
0.8952
 20
9.8945699999999999
 30
0.0
 10
0.8952
 20
9.8945699999999999
 30
0.0
 10
0.8952
 20
9.8945699999999999
 30
0.0
 10
0.8952
 20
9.8945699999999999
 30
0.0
 10
1.3575900000000001
 20
10.379189999999999
 30
0.0
 10
1.3575900000000001
 20
10.379189999999999
 30
0.0
 10
1.3575900000000001
 20
10.379189999999999
 30
0.0
 10
1.3575900000000001
 20
10.379189999999999
 30
0.0
 10
1.17946
 20
9.8945699999999999
 30
0.0
 10
1.17946
 20
9.8945699999999999
 30
0.0
 10
1.17946
 20
9.8945699999999999
 30
0.0
 10
1.17946
 20
9.8945699999999999
 30
0.0
 10
1.4670099999999999
 20
9.8945699999999999
 30
0.0
 10
1.4670099999999999
 20
9.8945699999999999
 30
0.0
 10
1.4670099999999999
 20
9.8945699999999999
 30
0.0
 10
1.4670099999999999
 20
9.8945699999999999
 30
0.0
 10
1.78895
 20
10.77454
 30
0.0
 10
1.78895
 20
10.77454
 30
0.0
 10
1.78895
 20
10.77454
 30
0.0
 10
1.78895
 20
10.77454
 30
0.0
 10
1.5128900000000001
 20
10.77454
 30
0.0
 10
1.5128900000000001
 20
10.77454
 30
0.0
 10
1.5128900000000001
 20
10.77454
 30
0.0
 10
1.5128900000000001
 20
10.77454
 30
0.0
 10
1.0537399999999999
 20
10.302670000000001
 30
0.0
 10
1.0537399999999999
 20
10.302670000000001
 30
0.0
 10
1.0537399999999999
 20
10.302670000000001
 30
0.0
 10
1.0537399999999999
 20
10.302670000000001
 30
0.0
 10
1.2253400000000001
 20
10.77454
 30
0.0
 10
1.2253400000000001
 20
10.77454
 30
0.0
 10
1.2253400000000001
 20
10.77454
 30
0.0
 10
1.2253400000000001
 20
10.77454
 30
0.0
 10
0.9378
 20
10.77454
 30
0.0
 10
0.9378
 20
10.77454
 30
0.0
  0
SPLINE
  5
30
100
AcDbEntity
  8
Layer 1
 62
   178
100
AcDbSpline
210
0.0
220
0.0
230
1.0
 70
     1
 71
     3
 72
    52
 73
    48
 74
     0
 42
0.0000000001
 43
0.0000000001
 40
0.0
 40
0.0
 40
0.0
 40
0.0
 40
0.0833333333333333
 40
0.0833333333333333
 40
0.0833333333333333
 40
0.0833333333333333
 40
0.1666666666666667
 40
0.1666666666666667
 40
0.1666666666666667
 40
0.1666666666666667
 40
0.25
 40
0.25
 40
0.25
 40
0.25
 40
0.3333333333333333
 40
0.3333333333333333
 40
0.3333333333333333
 40
0.3333333333333333
 40
0.4166666666666666
 40
0.4166666666666666
 40
0.4166666666666666
 40
0.4166666666666666
 40
0.4999999999999999
 40
0.4999999999999999
 40
0.4999999999999999
 40
0.4999999999999999
 40
0.5833333333333333
 40
0.5833333333333333
 40
0.5833333333333333
 40
0.5833333333333333
 40
0.6666666666666666
 40
0.6666666666666666
 40
0.6666666666666666
 40
0.6666666666666666
 40
0.75
 40
0.75
 40
0.75
 40
0.75
 40
0.8333333333333334
 40
0.8333333333333334
 40
0.8333333333333334
 40
0.8333333333333334
 40
0.9166666666666667
 40
0.9166666666666667
 40
0.9166666666666667
 40
0.9166666666666667
 40
1.0
 40
1.0
 40
1.0
 40
1.0
 10
1.6510400000000001
 20
9.8945699999999999
 30
0.0
 10
1.6510400000000001
 20
9.8945699999999999
 30
0.0
 10
1.9386000000000001
 20
9.8945699999999999
 30
0.0
 10
1.9386000000000001
 20
9.8945699999999999
 30
0.0
 10
1.9386000000000001
 20
9.8945699999999999
 30
0.0
 10
1.9386000000000001
 20
9.8945699999999999
 30
0.0
 10
2.0679400000000001
 20
10.24619
 30
0.0
 10
2.0679400000000001
 20
10.24619
 30
0.0
 10
2.0679400000000001
 20
10.24619
 30
0.0
 10
2.0679400000000001
 20
10.24619
 30
0.0
 10
2.33249
 20
10.24619
 30
0.0
 10
2.33249
 20
10.24619
 30
0.0
 10
2.33249
 20
10.24619
 30
0.0
 10
2.33249
 20
10.24619
 30
0.0
 10
2.2031499999999999
 20
9.8945699999999999
 30
0.0
 10
2.2031499999999999
 20
9.8945699999999999
 30
0.0
 10
2.2031499999999999
 20
9.8945699999999999
 30
0.0
 10
2.2031499999999999
 20
9.8945699999999999
 30
0.0
 10
2.4906899999999998
 20
9.8945699999999999
 30
0.0
 10
2.4906899999999998
 20
9.8945699999999999
 30
0.0
 10
2.4906899999999998
 20
9.8945699999999999
 30
0.0
 10
2.4906899999999998
 20
9.8945699999999999
 30
0.0
 10
2.8126500000000001
 20
10.77454
 30
0.0
 10
2.8126500000000001
 20
10.77454
 30
0.0
 10
2.8126500000000001
 20
10.77454
 30
0.0
 10
2.8126500000000001
 20
10.77454
 30
0.0
 10
2.52508
 20
10.77454
 30
0.0
 10
2.52508
 20
10.77454
 30
0.0
 10
2.52508
 20
10.77454
 30
0.0
 10
2.52508
 20
10.77454
 30
0.0
 10
2.4113899999999999
 20
10.46481
 30
0.0
 10
2.4113899999999999
 20
10.46481
 30
0.0
 10
2.4113899999999999
 20
10.46481
 30
0.0
 10
2.4113899999999999
 20
10.46481
 30
0.0
 10
2.1468400000000001
 20
10.46481
 30
0.0
 10
2.1468400000000001
 20
10.46481
 30
0.0
 10
2.1468400000000001
 20
10.46481
 30
0.0
 10
2.1468400000000001
 20
10.46481
 30
0.0
 10
2.2605400000000002
 20
10.77454
 30
0.0
 10
2.2605400000000002
 20
10.77454
 30
0.0
 10
2.2605400000000002
 20
10.77454
 30
0.0
 10
2.2605400000000002
 20
10.77454
 30
0.0
 10
1.97299
 20
10.77454
 30
0.0
 10
1.97299
 20
10.77454
 30
0.0
 10
1.97299
 20
10.77454
 30
0.0
 10
1.97299
 20
10.77454
 30
0.0
 10
1.6510400000000001
 20
9.8945699999999999
 30
0.0
 10
1.6510400000000001
 20
9.8945699999999999
 30
0.0
  0
SPLINE
  5
31
100
AcDbEntity
  8
Layer 1
 62
   178
100
AcDbSpline
210
0.0
220
0.0
230
1.0
 70
     1
 71
     3
 72
    44
 73
    40
 74
     0
 42
0.0000000001
 43
0.0000000001
 40
0.0
 40
0.0
 40
0.0
 40
0.0
 40
0.1
 40
0.1
 40
0.1
 40
0.1
 40
0.2
 40
0.2
 40
0.2
 40
0.2
 40
0.3
 40
0.3
 40
0.3
 40
0.3
 40
0.4
 40
0.4
 40
0.4
 40
0.4
 40
0.5
 40
0.5
 40
0.5
 40
0.5
 40
0.6
 40
0.6
 40
0.6
 40
0.6
 40
0.7
 40
0.7
 40
0.7
 40
0.7
 40
0.7999999999999999
 40
0.7999999999999999
 40
0.7999999999999999
 40
0.7999999999999999
 40
0.8999999999999999
 40
0.8999999999999999
 40
0.8999999999999999
 40
0.8999999999999999
 40
1.0
 40
1.0
 40
1.0
 40
1.0
 10
2.9966699999999999
 20
10.77454
 30
0.0
 10
2.9966699999999999
 20
10.77454
 30
0.0
 10
2.6747299999999998
 20
9.8945699999999999
 30
0.0
 10
2.6747299999999998
 20
9.8945699999999999
 30
0.0
 10
2.6747299999999998
 20
9.8945699999999999
 30
0.0
 10
2.6747299999999998
 20
9.8945699999999999
 30
0.0
 10
2.9540799999999998
 20
9.8945699999999999
 30
0.0
 10
2.9540799999999998
 20
9.8945699999999999
 30
0.0
 10
2.9540799999999998
 20
9.8945699999999999
 30
0.0
 10
2.9540799999999998
 20
9.8945699999999999
 30
0.0
 10
3.41648
 20
10.379189999999999
 30
0.0
 10
3.41648
 20
10.379189999999999
 30
0.0
 10
3.41648
 20
10.379189999999999
 30
0.0
 10
3.41648
 20
10.379189999999999
 30
0.0
 10
3.23834
 20
9.8945699999999999
 30
0.0
 10
3.23834
 20
9.8945699999999999
 30
0.0
 10
3.23834
 20
9.8945699999999999
 30
0.0
 10
3.23834
 20
9.8945699999999999
 30
0.0
 10
3.52589
 20
9.8945699999999999
 30
0.0
 10
3.52589
 20
9.8945699999999999
 30
0.0
 10
3.52589
 20
9.8945699999999999
 30
0.0
 10
3.52589
 20
9.8945699999999999
 30
0.0
 10
3.84782
 20
10.77454
 30
0.0
 10
3.84782
 20
10.77454
 30
0.0
 10
3.84782
 20
10.77454
 30
0.0
 10
3.84782
 20
10.77454
 30
0.0
 10
3.57178
 20
10.77454
 30
0.0
 10
3.57178
 20
10.77454
 30
0.0
 10
3.57178
 20
10.77454
 30
0.0
 10
3.57178
 20
10.77454
 30
0.0
 10
3.1126399999999999
 20
10.302670000000001
 30
0.0
 10
3.1126399999999999
 20
10.302670000000001
 30
0.0
 10
3.1126399999999999
 20
10.302670000000001
 30
0.0
 10
3.1126399999999999
 20
10.302670000000001
 30
0.0
 10
3.2842199999999999
 20
10.77454
 30
0.0
 10
3.2842199999999999
 20
10.77454
 30
0.0
 10
3.2842199999999999
 20
10.77454
 30
0.0
 10
3.2842199999999999
 20
10.77454
 30
0.0
 10
2.9966699999999999
 20
10.77454
 30
0.0
 10
2.9966699999999999
 20
10.77454
 30
0.0
  0
SPLINE
  5
32
100
AcDbEntity
  8
Layer 1
 62
   178
100
AcDbSpline
210
0.0
220
0.0
230
1.0
 70
     1
 71
     3
 72
    48
 73
    44
 74
     0
 42
0.0000000001
 43
0.0000000001
 40
0.0
 40
0.0
 40
0.0
 40
0.0
 40
0.0909090909090909
 40
0.0909090909090909
 40
0.0909090909090909
 40
0.0909090909090909
 40
0.1818181818181818
 40
0.1818181818181818
 40
0.1818181818181818
 40
0.1818181818181818
 40
0.2727272727272727
 40
0.2727272727272727
 40
0.2727272727272727
 40
0.2727272727272727
 40
0.3636363636363637
 40
0.3636363636363637
 40
0.3636363636363637
 40
0.3636363636363637
 40
0.4545454545454546
 40
0.4545454545454546
 40
0.4545454545454546
 40
0.4545454545454546
 40
0.5454545454545455
 40
0.5454545454545455
 40
0.5454545454545455
 40
0.5454545454545455
 40
0.6363636363636365
 40
0.6363636363636365
 40
0.6363636363636365
 40
0.6363636363636365
 40
0.7272727272727274
 40
0.7272727272727274
 40
0.7272727272727274
 40
0.7272727272727274
 40
0.8181818181818183
 40
0.8181818181818183
 40
0.8181818181818183
 40
0.8181818181818183
 40
0.9090909090909093
 40
0.9090909090909093
 40
0.9090909090909093
 40
0.9090909090909093
 40
1.0
 40
1.0
 40
1.0
 40
1.0
 10
4.0318699999999996
 20
10.77454
 30
0.0
 10
4.0318699999999996
 20
10.77454
 30
0.0
 10
3.5693100000000002
 20
9.5116800000000001
 30
0.0
 10
3.5693100000000002
 20
9.5116800000000001
 30
0.0
 10
3.5693100000000002
 20
9.5116800000000001
 30
0.0
 10
3.5693100000000002
 20
9.5116800000000001
 30
0.0
 10
3.8568500000000001
 20
9.5116800000000001
 30
0.0
 10
3.8568500000000001
 20
9.5116800000000001
 30
0.0
 10
3.8568500000000001
 20
9.5116800000000001
 30
0.0
 10
3.8568500000000001
 20
9.5116800000000001
 30
0.0
 10
4.0348300000000004
 20
10.00206
 30
0.0
 10
4.0348300000000004
 20
10.00206
 30
0.0
 10
4.0348300000000004
 20
10.00206
 30
0.0
 10
4.0680699999999996
 20
9.8815100000000005
 30
0.0
 10
4.16648
 20
9.8614700000000006
 30
0.0
 10
4.2321900000000001
 20
9.8614700000000006
 30
0.0
 10
4.2321900000000001
 20
9.8614700000000006
 30
0.0
 10
4.3455700000000004
 20
9.8614700000000006
 30
0.0
 10
4.4629399999999997
 20
9.9091500000000003
 30
0.0
 10
4.5501199999999997
 20
9.9801900000000003
 30
0.0
 10
4.5501199999999997
 20
9.9801900000000003
 30
0.0
 10
4.65205
 20
10.06401
 30
0.0
 10
4.7426399999999997
 20
10.19336
 30
0.0
 10
4.7924699999999998
 20
10.38829
 30
0.0
 10
4.7924699999999998
 20
10.38829
 30
0.0
 10
4.8157699999999997
 20
10.47939
 30
0.0
 10
4.8333700000000004
 20
10.599640000000001
 30
0.0
 10
4.7848300000000004
 20
10.69256
 30
0.0
 10
4.7848300000000004
 20
10.69256
 30
0.0
 10
4.7506700000000004
 20
10.758139999999999
 30
0.0
 10
4.6843700000000004
 20
10.80733
 30
0.0
 10
4.5709900000000001
 20
10.80733
 30
0.0
 10
4.5709900000000001
 20
10.80733
 30
0.0
 10
4.4099599999999999
 20
10.80733
 30
0.0
 10
4.3031100000000002
 20
10.71077
 30
0.0
 10
4.2747700000000002
 20
10.683439999999999
 30
0.0
 10
4.2747700000000002
 20
10.683439999999999
 30
0.0
 10
4.2747700000000002
 20
10.683439999999999
 30
0.0
 10
4.3079099999999997
 20
10.77454
 30
0.0
 10
4.3079099999999997
 20
10.77454
 30
0.0
 10
4.3079099999999997
 20
10.77454
 30
0.0
 10
4.3079099999999997
 20
10.77454
 30
0.0
 10
4.0318699999999996
 20
10.77454
 30
0.0
 10
4.0318699999999996
 20
10.77454
 30
0.0
  0
SPLINE
  5
33
100
AcDbEntity
  8
Layer 1
 62
   178
100
AcDbSpline
210
0.0
220
0.0
230
1.0
 70
     1
 71
     3
 72
    36
 73
    32
 74
     0
 42
0.0000000001
 43
0.0000000001
 40
0.0
 40
0.0
 40
0.0
 40
0.0
 40
0.125
 40
0.125
 40
0.125
 40
0.125
 40
0.25
 40
0.25
 40
0.25
 40
0.25
 40
0.375
 40
0.375
 40
0.375
 40
0.375
 40
0.5
 40
0.5
 40
0.5
 40
0.5
 40
0.625
 40
0.625
 40
0.625
 40
0.625
 40
0.75
 40
0.75
 40
0.75
 40
0.75
 40
0.875
 40
0.875
 40
0.875
 40
0.875
 40
1.0
 40
1.0
 40
1.0
 40
1.0
 10
4.23691
 20
10.12412
 30
0.0
 10
4.1991199999999997
 20
10.12412
 30
0.0
 10
4.1603599999999998
 20
10.133229999999999
 30
0.0
 10
4.1372999999999998
 20
10.171480000000001
 30
0.0
 10
4.1372999999999998
 20
10.171480000000001
 30
0.0
 10
4.1118699999999997
 20
10.21339
 30
0.0
 10
4.1188000000000002
 20
10.26624
 30
0.0
 10
4.1299799999999998
 20
10.309950000000001
 30
0.0
 10
4.1299799999999998
 20
10.309950000000001
 30
0.0
 10
4.1467299999999998
 20
10.375529999999999
 30
0.0
 10
4.18065
 20
10.437480000000001
 30
0.0
 10
4.2263400000000004
 20
10.481210000000001
 30
0.0
 10
4.2263400000000004
 20
10.481210000000001
 30
0.0
 10
4.2846799999999998
 20
10.535869999999999
 30
0.0
 10
4.3428800000000001
 20
10.544969999999999
 30
0.0
 10
4.3823100000000004
 20
10.544969999999999
 30
0.0
 10
4.3823100000000004
 20
10.544969999999999
 30
0.0
 10
4.4234
 20
10.544969999999999
 30
0.0
 10
4.4572099999999999
 20
10.535869999999999
 30
0.0
 10
4.4802900000000001
 20
10.4976
 30
0.0
 10
4.4802900000000001
 20
10.4976
 30
0.0
 10
4.5033899999999996
 20
10.459350000000001
 30
0.0
 10
4.5020499999999997
 20
10.415620000000001
 30
0.0
 10
4.4876100000000001
 20
10.35914
 30
0.0
 10
4.4876100000000001
 20
10.35914
 30
0.0
 10
4.4675700000000003
 20
10.280799999999999
 30
0.0
 10
4.4301500000000003
 20
10.22433
 30
0.0
 10
4.3912599999999999
 20
10.187900000000001
 30
0.0
 10
4.3912599999999999
 20
10.187900000000001
 30
0.0
 10
4.3350200000000001
 20
10.13505
 30
0.0
 10
4.2779999999999996
 20
10.12412
 30
0.0
 10
4.23691
 20
10.12412
 30
0.0
  0
SPLINE
  5
34
100
AcDbEntity
  8
Layer 1
 62
   178
100
AcDbSpline
210
0.0
220
0.0
230
1.0
 70
     1
 71
     3
 72
    44
 73
    40
 74
     0
 42
0.0000000001
 43
0.0000000001
 40
0.0
 40
0.0
 40
0.0
 40
0.0
 40
0.1
 40
0.1
 40
0.1
 40
0.1
 40
0.2
 40
0.2
 40
0.2
 40
0.2
 40
0.3
 40
0.3
 40
0.3
 40
0.3
 40
0.4
 40
0.4
 40
0.4
 40
0.4
 40
0.5
 40
0.5
 40
0.5
 40
0.5
 40
0.6
 40
0.6
 40
0.6
 40
0.6
 40
0.7
 40
0.7
 40
0.7
 40
0.7
 40
0.7999999999999999
 40
0.7999999999999999
 40
0.7999999999999999
 40
0.7999999999999999
 40
0.8999999999999999
 40
0.8999999999999999
 40
0.8999999999999999
 40
0.8999999999999999
 40
1.0
 40
1.0
 40
1.0
 40
1.0
 10
5.0801999999999996
 20
10.77454
 30
0.0
 10
5.0801999999999996
 20
10.77454
 30
0.0
 10
4.7582599999999999
 20
9.8945699999999999
 30
0.0
 10
4.7582599999999999
 20
9.8945699999999999
 30
0.0
 10
4.7582599999999999
 20
9.8945699999999999
 30
0.0
 10
4.7582599999999999
 20
9.8945699999999999
 30
0.0
 10
5.0376099999999999
 20
9.8945699999999999
 30
0.0
 10
5.0376099999999999
 20
9.8945699999999999
 30
0.0
 10
5.0376099999999999
 20
9.8945699999999999
 30
0.0
 10
5.0376099999999999
 20
9.8945699999999999
 30
0.0
 10
5.5000099999999996
 20
10.379189999999999
 30
0.0
 10
5.5000099999999996
 20
10.379189999999999
 30
0.0
 10
5.5000099999999996
 20
10.379189999999999
 30
0.0
 10
5.5000099999999996
 20
10.379189999999999
 30
0.0
 10
5.3218699999999997
 20
9.8945699999999999
 30
0.0
 10
5.3218699999999997
 20
9.8945699999999999
 30
0.0
 10
5.3218699999999997
 20
9.8945699999999999
 30
0.0
 10
5.3218699999999997
 20
9.8945699999999999
 30
0.0
 10
5.6094200000000001
 20
9.8945699999999999
 30
0.0
 10
5.6094200000000001
 20
9.8945699999999999
 30
0.0
 10
5.6094200000000001
 20
9.8945699999999999
 30
0.0
 10
5.6094200000000001
 20
9.8945699999999999
 30
0.0
 10
5.9313700000000003
 20
10.77454
 30
0.0
 10
5.9313700000000003
 20
10.77454
 30
0.0
 10
5.9313700000000003
 20
10.77454
 30
0.0
 10
5.9313700000000003
 20
10.77454
 30
0.0
 10
5.6553100000000001
 20
10.77454
 30
0.0
 10
5.6553100000000001
 20
10.77454
 30
0.0
 10
5.6553100000000001
 20
10.77454
 30
0.0
 10
5.6553100000000001
 20
10.77454
 30
0.0
 10
5.1961700000000004
 20
10.302670000000001
 30
0.0
 10
5.1961700000000004
 20
10.302670000000001
 30
0.0
 10
5.1961700000000004
 20
10.302670000000001
 30
0.0
 10
5.1961700000000004
 20
10.302670000000001
 30
0.0
 10
5.36775
 20
10.77454
 30
0.0
 10
5.36775
 20
10.77454
 30
0.0
 10
5.36775
 20
10.77454
 30
0.0
 10
5.36775
 20
10.77454
 30
0.0
 10
5.0801999999999996
 20
10.77454
 30
0.0
 10
5.0801999999999996
 20
10.77454
 30
0.0
  0
SPLINE
  5
35
100
AcDbEntity
  8
Layer 1
 62
   178
100
AcDbSpline
210
0.0
220
0.0
230
1.0
 70
     1
 71
     3
 72
    52
 73
    48
 74
     0
 42
0.0000000001
 43
0.0000000001
 40
0.0
 40
0.0
 40
0.0
 40
0.0
 40
0.0833333333333333
 40
0.0833333333333333
 40
0.0833333333333333
 40
0.0833333333333333
 40
0.1666666666666667
 40
0.1666666666666667
 40
0.1666666666666667
 40
0.1666666666666667
 40
0.25
 40
0.25
 40
0.25
 40
0.25
 40
0.3333333333333333
 40
0.3333333333333333
 40
0.3333333333333333
 40
0.3333333333333333
 40
0.4166666666666666
 40
0.4166666666666666
 40
0.4166666666666666
 40
0.4166666666666666
 40
0.4999999999999999
 40
0.4999999999999999
 40
0.4999999999999999
 40
0.4999999999999999
 40
0.5833333333333333
 40
0.5833333333333333
 40
0.5833333333333333
 40
0.5833333333333333
 40
0.6666666666666666
 40
0.6666666666666666
 40
0.6666666666666666
 40
0.6666666666666666
 40
0.75
 40
0.75
 40
0.75
 40
0.75
 40
0.8333333333333334
 40
0.8333333333333334
 40
0.8333333333333334
 40
0.8333333333333334
 40
0.9166666666666667
 40
0.9166666666666667
 40
0.9166666666666667
 40
0.9166666666666667
 40
1.0
 40
1.0
 40
1.0
 40
1.0
 10
5.7934599999999996
 20
9.8945699999999999
 30
0.0
 10
5.7934599999999996
 20
9.8945699999999999
 30
0.0
 10
6.0810000000000004
 20
9.8945699999999999
 30
0.0
 10
6.0810000000000004
 20
9.8945699999999999
 30
0.0
 10
6.0810000000000004
 20
9.8945699999999999
 30
0.0
 10
6.0810000000000004
 20
9.8945699999999999
 30
0.0
 10
6.2103400000000004
 20
10.24619
 30
0.0
 10
6.2103400000000004
 20
10.24619
 30
0.0
 10
6.2103400000000004
 20
10.24619
 30
0.0
 10
6.2103400000000004
 20
10.24619
 30
0.0
 10
6.4749100000000004
 20
10.24619
 30
0.0
 10
6.4749100000000004
 20
10.24619
 30
0.0
 10
6.4749100000000004
 20
10.24619
 30
0.0
 10
6.4749100000000004
 20
10.24619
 30
0.0
 10
6.3455700000000004
 20
9.8945699999999999
 30
0.0
 10
6.3455700000000004
 20
9.8945699999999999
 30
0.0
 10
6.3455700000000004
 20
9.8945699999999999
 30
0.0
 10
6.3455700000000004
 20
9.8945699999999999
 30
0.0
 10
6.6331100000000003
 20
9.8945699999999999
 30
0.0
 10
6.6331100000000003
 20
9.8945699999999999
 30
0.0
 10
6.6331100000000003
 20
9.8945699999999999
 30
0.0
 10
6.6331100000000003
 20
9.8945699999999999
 30
0.0
 10
6.95505
 20
10.77454
 30
0.0
 10
6.95505
 20
10.77454
 30
0.0
 10
6.95505
 20
10.77454
 30
0.0
 10
6.95505
 20
10.77454
 30
0.0
 10
6.66751
 20
10.77454
 30
0.0
 10
6.66751
 20
10.77454
 30
0.0
 10
6.66751
 20
10.77454
 30
0.0
 10
6.66751
 20
10.77454
 30
0.0
 10
6.5537900000000002
 20
10.46481
 30
0.0
 10
6.5537900000000002
 20
10.46481
 30
0.0
 10
6.5537900000000002
 20
10.46481
 30
0.0
 10
6.5537900000000002
 20
10.46481
 30
0.0
 10
6.2892599999999996
 20
10.46481
 30
0.0
 10
6.2892599999999996
 20
10.46481
 30
0.0
 10
6.2892599999999996
 20
10.46481
 30
0.0
 10
6.2892599999999996
 20
10.46481
 30
0.0
 10
6.4029400000000001
 20
10.77454
 30
0.0
 10
6.4029400000000001
 20
10.77454
 30
0.0
 10
6.4029400000000001
 20
10.77454
 30
0.0
 10
6.4029400000000001
 20
10.77454
 30
0.0
 10
6.1154000000000002
 20
10.77454
 30
0.0
 10
6.1154000000000002
 20
10.77454
 30
0.0
 10
6.1154000000000002
 20
10.77454
 30
0.0
 10
6.1154000000000002
 20
10.77454
 30
0.0
 10
5.7934599999999996
 20
9.8945699999999999
 30
0.0
 10
5.7934599999999996
 20
9.8945699999999999
 30
0.0
  0
SPLINE
  5
36
100
AcDbEntity
  8
Layer 1
 62
   178
100
AcDbSpline
210
0.0
220
0.0
230
1.0
 70
     1
 71
     3
 72
    28
 73
    24
 74
     0
 42
0.0000000001
 43
0.0000000001
 40
0.0
 40
0.0
 40
0.0
 40
0.0
 40
0.1666666666666667
 40
0.1666666666666667
 40
0.1666666666666667
 40
0.1666666666666667
 40
0.3333333333333333
 40
0.3333333333333333
 40
0.3333333333333333
 40
0.3333333333333333
 40
0.5
 40
0.5
 40
0.5
 40
0.5
 40
0.6666666666666666
 40
0.6666666666666666
 40
0.6666666666666666
 40
0.6666666666666666
 40
0.8333333333333333
 40
0.8333333333333333
 40
0.8333333333333333
 40
0.8333333333333333
 40
1.0
 40
1.0
 40
1.0
 40
1.0
 10
6.8171400000000002
 20
9.8945699999999999
 30
0.0
 10
6.8171400000000002
 20
9.8945699999999999
 30
0.0
 10
7.1047000000000002
 20
9.8945699999999999
 30
0.0
 10
7.1047000000000002
 20
9.8945699999999999
 30
0.0
 10
7.1047000000000002
 20
9.8945699999999999
 30
0.0
 10
7.1047000000000002
 20
9.8945699999999999
 30
0.0
 10
7.3432899999999997
 20
10.544969999999999
 30
0.0
 10
7.3432899999999997
 20
10.544969999999999
 30
0.0
 10
7.3432899999999997
 20
10.544969999999999
 30
0.0
 10
7.3432899999999997
 20
10.544969999999999
 30
0.0
 10
7.6078400000000004
 20
10.544969999999999
 30
0.0
 10
7.6078400000000004
 20
10.544969999999999
 30
0.0
 10
7.6078400000000004
 20
10.544969999999999
 30
0.0
 10
7.6078400000000004
 20
10.544969999999999
 30
0.0
 10
7.6911899999999997
 20
10.77454
 30
0.0
 10
7.6911899999999997
 20
10.77454
 30
0.0
 10
7.6911899999999997
 20
10.77454
 30
0.0
 10
7.6911899999999997
 20
10.77454
 30
0.0
 10
7.1390900000000004
 20
10.77454
 30
0.0
 10
7.1390900000000004
 20
10.77454
 30
0.0
 10
7.1390900000000004
 20
10.77454
 30
0.0
 10
7.1390900000000004
 20
10.77454
 30
0.0
 10
6.8171400000000002
 20
9.8945699999999999
 30
0.0
 10
6.8171400000000002
 20
9.8945699999999999
 30
0.0
  0
SPLINE
  5
37
100
AcDbEntity
  8
Layer 1
 62
   178
100
AcDbSpline
210
0.0
220
0.0
230
1.0
 70
     1
 71
     3
 72
    48
 73
    44
 74
     0
 42
0.0000000001
 43
0.0000000001
 40
0.0
 40
0.0
 40
0.0
 40
0.0
 40
0.0909090909090909
 40
0.0909090909090909
 40
0.0909090909090909
 40
0.0909090909090909
 40
0.1818181818181818
 40
0.1818181818181818
 40
0.1818181818181818
 40
0.1818181818181818
 40
0.2727272727272727
 40
0.2727272727272727
 40
0.2727272727272727
 40
0.2727272727272727
 40
0.3636363636363637
 40
0.3636363636363637
 40
0.3636363636363637
 40
0.3636363636363637
 40
0.4545454545454546
 40
0.4545454545454546
 40
0.4545454545454546
 40
0.4545454545454546
 40
0.5454545454545455
 40
0.5454545454545455
 40
0.5454545454545455
 40
0.5454545454545455
 40
0.6363636363636365
 40
0.6363636363636365
 40
0.6363636363636365
 40
0.6363636363636365
 40
0.7272727272727274
 40
0.7272727272727274
 40
0.7272727272727274
 40
0.7272727272727274
 40
0.8181818181818183
 40
0.8181818181818183
 40
0.8181818181818183
 40
0.8181818181818183
 40
0.9090909090909093
 40
0.9090909090909093
 40
0.9090909090909093
 40
0.9090909090909093
 40
1.0
 40
1.0
 40
1.0
 40
1.0
 10
-6.3941499999999998
 20
8.9417200000000001
 30
0.0
 10
-6.3941499999999998
 20
8.9417200000000001
 30
0.0
 10
-6.35215
 20
8.9417200000000001
 30
0.0
 10
-6.35215
 20
8.9417200000000001
 30
0.0
 10
-6.35215
 20
8.9417200000000001
 30
0.0
 10
-6.35215
 20
8.9417200000000001
 30
0.0
 10
-6.35215
 20
9.1054999999999993
 30
0.0
 10
-6.35215
 20
9.1054999999999993
 30
0.0
 10
-6.35215
 20
9.1054999999999993
 30
0.0
 10
-6.35215
 20
9.1054999999999993
 30
0.0
 10
-6.2079599999999999
 20
8.9417200000000001
 30
0.0
 10
-6.2079599999999999
 20
8.9417200000000001
 30
0.0
 10
-6.2079599999999999
 20
8.9417200000000001
 30
0.0
 10
-6.2079599999999999
 20
8.9417200000000001
 30
0.0
 10
-6.1540699999999999
 20
8.9417200000000001
 30
0.0
 10
-6.1540699999999999
 20
8.9417200000000001
 30
0.0
 10
-6.1540699999999999
 20
8.9417200000000001
 30
0.0
 10
-6.1540699999999999
 20
8.9417200000000001
 30
0.0
 10
-6.3122400000000001
 20
9.1168200000000006
 30
0.0
 10
-6.3122400000000001
 20
9.1168200000000006
 30
0.0
 10
-6.3122400000000001
 20
9.1168200000000006
 30
0.0
 10
-6.3122400000000001
 20
9.1168200000000006
 30
0.0
 10
-6.1659600000000001
 20
9.2692700000000006
 30
0.0
 10
-6.1659600000000001
 20
9.2692700000000006
 30
0.0
 10
-6.1659600000000001
 20
9.2692700000000006
 30
0.0
 10
-6.1659600000000001
 20
9.2692700000000006
 30
0.0
 10
-6.2163700000000004
 20
9.2692700000000006
 30
0.0
 10
-6.2163700000000004
 20
9.2692700000000006
 30
0.0
 10
-6.2163700000000004
 20
9.2692700000000006
 30
0.0
 10
-6.2163700000000004
 20
9.2692700000000006
 30
0.0
 10
-6.35215
 20
9.1228499999999997
 30
0.0
 10
-6.35215
 20
9.1228499999999997
 30
0.0
 10
-6.35215
 20
9.1228499999999997
 30
0.0
 10
-6.35215
 20
9.1228499999999997
 30
0.0
 10
-6.35215
 20
9.2692700000000006
 30
0.0
 10
-6.35215
 20
9.2692700000000006
 30
0.0
 10
-6.35215
 20
9.2692700000000006
 30
0.0
 10
-6.35215
 20
9.2692700000000006
 30
0.0
 10
-6.3941499999999998
 20
9.2692700000000006
 30
0.0
 10
-6.3941499999999998
 20
9.2692700000000006
 30
0.0
 10
-6.3941499999999998
 20
9.2692700000000006
 30
0.0
 10
-6.3941499999999998
 20
9.2692700000000006
 30
0.0
 10
-6.3941499999999998
 20
8.9417200000000001
 30
0.0
 10
-6.3941499999999998
 20
8.9417200000000001
 30
0.0
  0
SPLINE
  5
38
100
AcDbEntity
  8
Layer 1
 62
   178
100
AcDbSpline
210
0.0
220
0.0
230
1.0
 70
     1
 71
     3
 72
    20
 73
    16
 74
     0
 42
0.0000000001
 43
0.0000000001
 40
0.0
 40
0.0
 40
0.0
 40
0.0
 40
0.25
 40
0.25
 40
0.25
 40
0.25
 40
0.5
 40
0.5
 40
0.5
 40
0.5
 40
0.75
 40
0.75
 40
0.75
 40
0.75
 40
1.0
 40
1.0
 40
1.0
 40
1.0
 10
-5.5842200000000002
 20
8.9280100000000004
 30
0.0
 10
-5.4869300000000001
 20
8.9280100000000004
 30
0.0
 10
-5.4190399999999999
 20
9.0036100000000001
 30
0.0
 10
-5.4190399999999999
 20
9.1054999999999993
 30
0.0
 10
-5.4190399999999999
 20
9.1054999999999993
 30
0.0
 10
-5.4190399999999999
 20
9.2073900000000002
 30
0.0
 10
-5.4869300000000001
 20
9.2828499999999998
 30
0.0
 10
-5.5842200000000002
 20
9.2828499999999998
 30
0.0
 10
-5.5842200000000002
 20
9.2828499999999998
 30
0.0
 10
-5.6815199999999999
 20
9.2828499999999998
 30
0.0
 10
-5.7494100000000001
 20
9.2073900000000002
 30
0.0
 10
-5.7494100000000001
 20
9.1054999999999993
 30
0.0
 10
-5.7494100000000001
 20
9.1054999999999993
 30
0.0
 10
-5.7494100000000001
 20
9.0036100000000001
 30
0.0
 10
-5.6815199999999999
 20
8.9280100000000004
 30
0.0
 10
-5.5842200000000002
 20
8.9280100000000004
 30
0.0
  0
SPLINE
  5
39
100
AcDbEntity
  8
Layer 1
 62
   178
100
AcDbSpline
210
0.0
220
0.0
230
1.0
 70
     1
 71
     3
 72
    20
 73
    16
 74
     0
 42
0.0000000001
 43
0.0000000001
 40
0.0
 40
0.0
 40
0.0
 40
0.0
 40
0.25
 40
0.25
 40
0.25
 40
0.25
 40
0.5
 40
0.5
 40
0.5
 40
0.5
 40
0.75
 40
0.75
 40
0.75
 40
0.75
 40
1.0
 40
1.0
 40
1.0
 40
1.0
 10
-5.5842200000000002
 20
8.9643700000000006
 30
0.0
 10
-5.64933
 20
8.9643700000000006
 30
0.0
 10
-5.7046200000000002
 20
9.0202100000000005
 30
0.0
 10
-5.7046200000000002
 20
9.1054999999999993
 30
0.0
 10
-5.7046200000000002
 20
9.1054999999999993
 30
0.0
 10
-5.7046200000000002
 20
9.1907800000000002
 30
0.0
 10
-5.64933
 20
9.2466399999999993
 30
0.0
 10
-5.5842200000000002
 20
9.2466399999999993
 30
0.0
 10
-5.5842200000000002
 20
9.2466399999999993
 30
0.0
 10
-5.51912
 20
9.2466399999999993
 30
0.0
 10
-5.4638299999999997
 20
9.1907800000000002
 30
0.0
 10
-5.4638299999999997
 20
9.1054999999999993
 30
0.0
 10
-5.4638299999999997
 20
9.1054999999999993
 30
0.0
 10
-5.4638299999999997
 20
9.0202100000000005
 30
0.0
 10
-5.51912
 20
8.9643700000000006
 30
0.0
 10
-5.5842200000000002
 20
8.9643700000000006
 30
0.0
  0
SPLINE
  5
3A
100
AcDbEntity
  8
Layer 1
 62
   178
100
AcDbSpline
210
0.0
220
0.0
230
1.0
 70
     1
 71
     3
 72
    52
 73
    48
 74
     0
 42
0.0000000001
 43
0.0000000001
 40
0.0
 40
0.0
 40
0.0
 40
0.0
 40
0.0833333333333333
 40
0.0833333333333333
 40
0.0833333333333333
 40
0.0833333333333333
 40
0.1666666666666667
 40
0.1666666666666667
 40
0.1666666666666667
 40
0.1666666666666667
 40
0.25
 40
0.25
 40
0.25
 40
0.25
 40
0.3333333333333333
 40
0.3333333333333333
 40
0.3333333333333333
 40
0.3333333333333333
 40
0.4166666666666666
 40
0.4166666666666666
 40
0.4166666666666666
 40
0.4166666666666666
 40
0.4999999999999999
 40
0.4999999999999999
 40
0.4999999999999999
 40
0.4999999999999999
 40
0.5833333333333333
 40
0.5833333333333333
 40
0.5833333333333333
 40
0.5833333333333333
 40
0.6666666666666666
 40
0.6666666666666666
 40
0.6666666666666666
 40
0.6666666666666666
 40
0.75
 40
0.75
 40
0.75
 40
0.75
 40
0.8333333333333334
 40
0.8333333333333334
 40
0.8333333333333334
 40
0.8333333333333334
 40
0.9166666666666667
 40
0.9166666666666667
 40
0.9166666666666667
 40
0.9166666666666667
 40
1.0
 40
1.0
 40
1.0
 40
1.0
 10
-4.9702799999999998
 20
8.9417200000000001
 30
0.0
 10
-4.9702799999999998
 20
8.9417200000000001
 30
0.0
 10
-4.9282899999999996
 20
8.9417200000000001
 30
0.0
 10
-4.9282899999999996
 20
8.9417200000000001
 30
0.0
 10
-4.9282899999999996
 20
8.9417200000000001
 30
0.0
 10
-4.9282899999999996
 20
8.9417200000000001
 30
0.0
 10
-4.9282899999999996
 20
9.0911600000000004
 30
0.0
 10
-4.9282899999999996
 20
9.0911600000000004
 30
0.0
 10
-4.9282899999999996
 20
9.0911600000000004
 30
0.0
 10
-4.9282899999999996
 20
9.0911600000000004
 30
0.0
 10
-4.7574899999999998
 20
9.0911600000000004
 30
0.0
 10
-4.7574899999999998
 20
9.0911600000000004
 30
0.0
 10
-4.7574899999999998
 20
9.0911600000000004
 30
0.0
 10
-4.7574899999999998
 20
9.0911600000000004
 30
0.0
 10
-4.7574899999999998
 20
8.9417200000000001
 30
0.0
 10
-4.7574899999999998
 20
8.9417200000000001
 30
0.0
 10
-4.7574899999999998
 20
8.9417200000000001
 30
0.0
 10
-4.7574899999999998
 20
8.9417200000000001
 30
0.0
 10
-4.7154999999999996
 20
8.9417200000000001
 30
0.0
 10
-4.7154999999999996
 20
8.9417200000000001
 30
0.0
 10
-4.7154999999999996
 20
8.9417200000000001
 30
0.0
 10
-4.7154999999999996
 20
8.9417200000000001
 30
0.0
 10
-4.7154999999999996
 20
9.2692700000000006
 30
0.0
 10
-4.7154999999999996
 20
9.2692700000000006
 30
0.0
 10
-4.7154999999999996
 20
9.2692700000000006
 30
0.0
 10
-4.7154999999999996
 20
9.2692700000000006
 30
0.0
 10
-4.7574899999999998
 20
9.2692700000000006
 30
0.0
 10
-4.7574899999999998
 20
9.2692700000000006
 30
0.0
 10
-4.7574899999999998
 20
9.2692700000000006
 30
0.0
 10
-4.7574899999999998
 20
9.2692700000000006
 30
0.0
 10
-4.7574899999999998
 20
9.1273800000000005
 30
0.0
 10
-4.7574899999999998
 20
9.1273800000000005
 30
0.0
 10
-4.7574899999999998
 20
9.1273800000000005
 30
0.0
 10
-4.7574899999999998
 20
9.1273800000000005
 30
0.0
 10
-4.9282899999999996
 20
9.1273800000000005
 30
0.0
 10
-4.9282899999999996
 20
9.1273800000000005
 30
0.0
 10
-4.9282899999999996
 20
9.1273800000000005
 30
0.0
 10
-4.9282899999999996
 20
9.1273800000000005
 30
0.0
 10
-4.9282899999999996
 20
9.2692700000000006
 30
0.0
 10
-4.9282899999999996
 20
9.2692700000000006
 30
0.0
 10
-4.9282899999999996
 20
9.2692700000000006
 30
0.0
 10
-4.9282899999999996
 20
9.2692700000000006
 30
0.0
 10
-4.9702799999999998
 20
9.2692700000000006
 30
0.0
 10
-4.9702799999999998
 20
9.2692700000000006
 30
0.0
 10
-4.9702799999999998
 20
9.2692700000000006
 30
0.0
 10
-4.9702799999999998
 20
9.2692700000000006
 30
0.0
 10
-4.9702799999999998
 20
8.9417200000000001
 30
0.0
 10
-4.9702799999999998
 20
8.9417200000000001
 30
0.0
  0
SPLINE
  5
3B
100
AcDbEntity
  8
Layer 1
 62
   178
100
AcDbSpline
210
0.0
220
0.0
230
1.0
 70
     1
 71
     3
 72
    44
 73
    40
 74
     0
 42
0.0000000001
 43
0.0000000001
 40
0.0
 40
0.0
 40
0.0
 40
0.0
 40
0.1
 40
0.1
 40
0.1
 40
0.1
 40
0.2
 40
0.2
 40
0.2
 40
0.2
 40
0.3
 40
0.3
 40
0.3
 40
0.3
 40
0.4
 40
0.4
 40
0.4
 40
0.4
 40
0.5
 40
0.5
 40
0.5
 40
0.5
 40
0.6
 40
0.6
 40
0.6
 40
0.6
 40
0.7
 40
0.7
 40
0.7
 40
0.7
 40
0.7999999999999999
 40
0.7999999999999999
 40
0.7999999999999999
 40
0.7999999999999999
 40
0.8999999999999999
 40
0.8999999999999999
 40
0.8999999999999999
 40
0.8999999999999999
 40
1.0
 40
1.0
 40
1.0
 40
1.0
 10
-3.9986600000000001
 20
9.0051299999999994
 30
0.0
 10
-4.0217599999999996
 20
8.9832300000000007
 30
0.0
 10
-4.0539500000000004
 20
8.9643700000000006
 30
0.0
 10
-4.09457
 20
8.9643700000000006
 30
0.0
 10
-4.09457
 20
8.9643700000000006
 30
0.0
 10
-4.1652500000000003
 20
8.9643700000000006
 30
0.0
 10
-4.2219499999999996
 20
9.0194500000000009
 30
0.0
 10
-4.2219499999999996
 20
9.1054999999999993
 30
0.0
 10
-4.2219499999999996
 20
9.1054999999999993
 30
0.0
 10
-4.2219499999999996
 20
9.1824700000000004
 30
0.0
 10
-4.1736599999999999
 20
9.2466399999999993
 30
0.0
 10
-4.0903600000000004
 20
9.2466399999999993
 30
0.0
 10
-4.0903600000000004
 20
9.2466399999999993
 30
0.0
 10
-4.06515
 20
9.2466399999999993
 30
0.0
 10
-4.0392799999999998
 20
9.2413600000000002
 30
0.0
 10
-3.9986600000000001
 20
9.2103999999999999
 30
0.0
 10
-3.9986600000000001
 20
9.2103999999999999
 30
0.0
 10
-3.9986600000000001
 20
9.2103999999999999
 30
0.0
 10
-3.9986600000000001
 20
9.2549399999999995
 30
0.0
 10
-3.9986600000000001
 20
9.2549399999999995
 30
0.0
 10
-3.9986600000000001
 20
9.2549399999999995
 30
0.0
 10
-4.0147599999999999
 20
9.2670100000000009
 30
0.0
 10
-4.0427600000000004
 20
9.2828499999999998
 30
0.0
 10
-4.0931699999999998
 20
9.2828499999999998
 30
0.0
 10
-4.0931699999999998
 20
9.2828499999999998
 30
0.0
 10
-4.1932499999999999
 20
9.2828499999999998
 30
0.0
 10
-4.2667400000000004
 20
9.2103999999999999
 30
0.0
 10
-4.2667400000000004
 20
9.1054999999999993
 30
0.0
 10
-4.2667400000000004
 20
9.1054999999999993
 30
0.0
 10
-4.2667400000000004
 20
9.0013400000000008
 30
0.0
 10
-4.1925400000000002
 20
8.9280100000000004
 30
0.0
 10
-4.09246
 20
8.9280100000000004
 30
0.0
 10
-4.09246
 20
8.9280100000000004
 30
0.0
 10
-4.0490700000000004
 20
8.9280100000000004
 30
0.0
 10
-4.0182599999999997
 20
8.9447500000000009
 30
0.0
 10
-3.9986600000000001
 20
8.9575800000000001
 30
0.0
 10
-3.9986600000000001
 20
8.9575800000000001
 30
0.0
 10
-3.9986600000000001
 20
8.9575800000000001
 30
0.0
 10
-3.9986600000000001
 20
9.0051299999999994
 30
0.0
 10
-3.9986600000000001
 20
9.0051299999999994
 30
0.0
  0
SPLINE
  5
3C
100
AcDbEntity
  8
Layer 1
 62
   178
100
AcDbSpline
210
0.0
220
0.0
230
1.0
 70
     1
 71
     3
 72
    36
 73
    32
 74
     0
 42
0.0000000001
 43
0.0000000001
 40
0.0
 40
0.0
 40
0.0
 40
0.0
 40
0.125
 40
0.125
 40
0.125
 40
0.125
 40
0.25
 40
0.25
 40
0.25
 40
0.25
 40
0.375
 40
0.375
 40
0.375
 40
0.375
 40
0.5
 40
0.5
 40
0.5
 40
0.5
 40
0.625
 40
0.625
 40
0.625
 40
0.625
 40
0.75
 40
0.75
 40
0.75
 40
0.75
 40
0.875
 40
0.875
 40
0.875
 40
0.875
 40
1.0
 40
1.0
 40
1.0
 40
1.0
 10
-3.4988199999999998
 20
8.9417200000000001
 30
0.0
 10
-3.4988199999999998
 20
8.9417200000000001
 30
0.0
 10
-3.4568099999999999
 20
8.9417200000000001
 30
0.0
 10
-3.4568099999999999
 20
8.9417200000000001
 30
0.0
 10
-3.4568099999999999
 20
8.9417200000000001
 30
0.0
 10
-3.4568099999999999
 20
8.9417200000000001
 30
0.0
 10
-3.4568099999999999
 20
9.2330500000000004
 30
0.0
 10
-3.4568099999999999
 20
9.2330500000000004
 30
0.0
 10
-3.4568099999999999
 20
9.2330500000000004
 30
0.0
 10
-3.4568099999999999
 20
9.2330500000000004
 30
0.0
 10
-3.3490199999999999
 20
9.2330500000000004
 30
0.0
 10
-3.3490199999999999
 20
9.2330500000000004
 30
0.0
 10
-3.3490199999999999
 20
9.2330500000000004
 30
0.0
 10
-3.3490199999999999
 20
9.2330500000000004
 30
0.0
 10
-3.3490199999999999
 20
9.2692700000000006
 30
0.0
 10
-3.3490199999999999
 20
9.2692700000000006
 30
0.0
 10
-3.3490199999999999
 20
9.2692700000000006
 30
0.0
 10
-3.3490199999999999
 20
9.2692700000000006
 30
0.0
 10
-3.6066199999999999
 20
9.2692700000000006
 30
0.0
 10
-3.6066199999999999
 20
9.2692700000000006
 30
0.0
 10
-3.6066199999999999
 20
9.2692700000000006
 30
0.0
 10
-3.6066199999999999
 20
9.2692700000000006
 30
0.0
 10
-3.6066199999999999
 20
9.2330500000000004
 30
0.0
 10
-3.6066199999999999
 20
9.2330500000000004
 30
0.0
 10
-3.6066199999999999
 20
9.2330500000000004
 30
0.0
 10
-3.6066199999999999
 20
9.2330500000000004
 30
0.0
 10
-3.4988199999999998
 20
9.2330500000000004
 30
0.0
 10
-3.4988199999999998
 20
9.2330500000000004
 30
0.0
 10
-3.4988199999999998
 20
9.2330500000000004
 30
0.0
 10
-3.4988199999999998
 20
9.2330500000000004
 30
0.0
 10
-3.4988199999999998
 20
8.9417200000000001
 30
0.0
 10
-3.4988199999999998
 20
8.9417200000000001
 30
0.0
  0
SPLINE
  5
3D
100
AcDbEntity
  8
Layer 1
 62
   178
100
AcDbSpline
210
0.0
220
0.0
230
1.0
 70
     1
 71
     3
 72
    40
 73
    36
 74
     0
 42
0.0000000001
 43
0.0000000001
 40
0.0
 40
0.0
 40
0.0
 40
0.0
 40
0.1111111111111111
 40
0.1111111111111111
 40
0.1111111111111111
 40
0.1111111111111111
 40
0.2222222222222222
 40
0.2222222222222222
 40
0.2222222222222222
 40
0.2222222222222222
 40
0.3333333333333333
 40
0.3333333333333333
 40
0.3333333333333333
 40
0.3333333333333333
 40
0.4444444444444444
 40
0.4444444444444444
 40
0.4444444444444444
 40
0.4444444444444444
 40
0.5555555555555556
 40
0.5555555555555556
 40
0.5555555555555556
 40
0.5555555555555556
 40
0.6666666666666667
 40
0.6666666666666667
 40
0.6666666666666667
 40
0.6666666666666667
 40
0.7777777777777779
 40
0.7777777777777779
 40
0.7777777777777779
 40
0.7777777777777779
 40
0.8888888888888891
 40
0.8888888888888891
 40
0.8888888888888891
 40
0.8888888888888891
 40
1.0
 40
1.0
 40
1.0
 40
1.0
 10
-2.9247800000000002
 20
9.2692700000000006
 30
0.0
 10
-2.9247800000000002
 20
9.2692700000000006
 30
0.0
 10
-2.9247800000000002
 20
8.7831100000000006
 30
0.0
 10
-2.9247800000000002
 20
8.7831100000000006
 30
0.0
 10
-2.9247800000000002
 20
8.7831100000000006
 30
0.0
 10
-2.9247800000000002
 20
8.7831100000000006
 30
0.0
 10
-2.88279
 20
8.7831100000000006
 30
0.0
 10
-2.88279
 20
8.7831100000000006
 30
0.0
 10
-2.88279
 20
8.7831100000000006
 30
0.0
 10
-2.88279
 20
8.7831100000000006
 30
0.0
 10
-2.88279
 20
8.9922799999999992
 30
0.0
 10
-2.88279
 20
8.9922799999999992
 30
0.0
 10
-2.88279
 20
8.9922799999999992
 30
0.0
 10
-2.8673899999999999
 20
8.96814
 30
0.0
 10
-2.8344999999999998
 20
8.9280100000000004
 30
0.0
 10
-2.7707999999999999
 20
8.9280100000000004
 30
0.0
 10
-2.7707999999999999
 20
8.9280100000000004
 30
0.0
 10
-2.67489
 20
8.9280100000000004
 30
0.0
 10
-2.6154000000000002
 20
9.0058600000000002
 30
0.0
 10
-2.6154000000000002
 20
9.1054999999999993
 30
0.0
 10
-2.6154000000000002
 20
9.1054999999999993
 30
0.0
 10
-2.6154000000000002
 20
9.2111599999999996
 30
0.0
 10
-2.6791
 20
9.2828499999999998
 30
0.0
 10
-2.7722000000000002
 20
9.2828499999999998
 30
0.0
 10
-2.7722000000000002
 20
9.2828499999999998
 30
0.0
 10
-2.8323800000000001
 20
9.2828499999999998
 30
0.0
 10
-2.8666900000000002
 20
9.2488899999999994
 30
0.0
 10
-2.8856000000000002
 20
9.2111599999999996
 30
0.0
 10
-2.8856000000000002
 20
9.2111599999999996
 30
0.0
 10
-2.8856000000000002
 20
9.2111599999999996
 30
0.0
 10
-2.8856000000000002
 20
9.2692700000000006
 30
0.0
 10
-2.8856000000000002
 20
9.2692700000000006
 30
0.0
 10
-2.8856000000000002
 20
9.2692700000000006
 30
0.0
 10
-2.8856000000000002
 20
9.2692700000000006
 30
0.0
 10
-2.9247800000000002
 20
9.2692700000000006
 30
0.0
 10
-2.9247800000000002
 20
9.2692700000000006
 30
0.0
  0
SPLINE
  5
3E
100
AcDbEntity
  8
Layer 1
 62
   178
100
AcDbSpline
210
0.0
220
0.0
230
1.0
 70
     1
 71
     3
 72
    20
 73
    16
 74
     0
 42
0.0000000001
 43
0.0000000001
 40
0.0
 40
0.0
 40
0.0
 40
0.0
 40
0.25
 40
0.25
 40
0.25
 40
0.25
 40
0.5
 40
0.5
 40
0.5
 40
0.5
 40
0.75
 40
0.75
 40
0.75
 40
0.75
 40
1.0
 40
1.0
 40
1.0
 40
1.0
 10
-2.7707999999999999
 20
8.9643700000000006
 30
0.0
 10
-2.82959
 20
8.9643700000000006
 30
0.0
 10
-2.8856000000000002
 20
9.0134100000000004
 30
0.0
 10
-2.8856000000000002
 20
9.1054999999999993
 30
0.0
 10
-2.8856000000000002
 20
9.1054999999999993
 30
0.0
 10
-2.8856000000000002
 20
9.1824700000000004
 30
0.0
 10
-2.84219
 20
9.2466399999999993
 30
0.0
 10
-2.7764000000000002
 20
9.2466399999999993
 30
0.0
 10
-2.7764000000000002
 20
9.2466399999999993
 30
0.0
 10
-2.6923900000000001
 20
9.2466399999999993
 30
0.0
 10
-2.6602100000000002
 20
9.1711600000000004
 30
0.0
 10
-2.6602100000000002
 20
9.1054999999999993
 30
0.0
 10
-2.6602100000000002
 20
9.1054999999999993
 30
0.0
 10
-2.6602100000000002
 20
9.0262399999999996
 30
0.0
 10
-2.70079
 20
8.9643700000000006
 30
0.0
 10
-2.7707999999999999
 20
8.9643700000000006
 30
0.0
  0
SPLINE
  5
3F
100
AcDbEntity
  8
Layer 1
 62
   178
100
AcDbSpline
210
0.0
220
0.0
230
1.0
 70
     1
 71
     3
 72
    36
 73
    32
 74
     0
 42
0.0000000001
 43
0.0000000001
 40
0.0
 40
0.0
 40
0.0
 40
0.0
 40
0.125
 40
0.125
 40
0.125
 40
0.125
 40
0.25
 40
0.25
 40
0.25
 40
0.25
 40
0.375
 40
0.375
 40
0.375
 40
0.375
 40
0.5
 40
0.5
 40
0.5
 40
0.5
 40
0.625
 40
0.625
 40
0.625
 40
0.625
 40
0.75
 40
0.75
 40
0.75
 40
0.75
 40
0.875
 40
0.875
 40
0.875
 40
0.875
 40
1.0
 40
1.0
 40
1.0
 40
1.0
 10
-2.2107399999999999
 20
9.2692700000000006
 30
0.0
 10
-2.2107399999999999
 20
9.2692700000000006
 30
0.0
 10
-2.07077
 20
8.9447500000000009
 30
0.0
 10
-2.07077
 20
8.9447500000000009
 30
0.0
 10
-2.07077
 20
8.9447500000000009
 30
0.0
 10
-2.07077
 20
8.9447500000000009
 30
0.0
 10
-2.1337700000000002
 20
8.7831100000000006
 30
0.0
 10
-2.1337700000000002
 20
8.7831100000000006
 30
0.0
 10
-2.1337700000000002
 20
8.7831100000000006
 30
0.0
 10
-2.1337700000000002
 20
8.7831100000000006
 30
0.0
 10
-2.0882700000000001
 20
8.7831100000000006
 30
0.0
 10
-2.0882700000000001
 20
8.7831100000000006
 30
0.0
 10
-2.0882700000000001
 20
8.7831100000000006
 30
0.0
 10
-2.0882700000000001
 20
8.7831100000000006
 30
0.0
 10
-1.9090800000000001
 20
9.2692700000000006
 30
0.0
 10
-1.9090800000000001
 20
9.2692700000000006
 30
0.0
 10
-1.9090800000000001
 20
9.2692700000000006
 30
0.0
 10
-1.9090800000000001
 20
9.2692700000000006
 30
0.0
 10
-1.95177
 20
9.2692700000000006
 30
0.0
 10
-1.95177
 20
9.2692700000000006
 30
0.0
 10
-1.95177
 20
9.2692700000000006
 30
0.0
 10
-1.95177
 20
9.2692700000000006
 30
0.0
 10
-2.0490499999999998
 20
8.9922799999999992
 30
0.0
 10
-2.0490499999999998
 20
8.9922799999999992
 30
0.0
 10
-2.0490499999999998
 20
8.9922799999999992
 30
0.0
 10
-2.0490499999999998
 20
8.9922799999999992
 30
0.0
 10
-2.16316
 20
9.2692700000000006
 30
0.0
 10
-2.16316
 20
9.2692700000000006
 30
0.0
 10
-2.16316
 20
9.2692700000000006
 30
0.0
 10
-2.16316
 20
9.2692700000000006
 30
0.0
 10
-2.2107399999999999
 20
9.2692700000000006
 30
0.0
 10
-2.2107399999999999
 20
9.2692700000000006
 30
0.0
  0
SPLINE
  5
40
100
AcDbEntity
  8
Layer 1
 62
   178
100
AcDbSpline
210
0.0
220
0.0
230
1.0
 70
     1
 71
     3
 72
    48
 73
    44
 74
     0
 42
0.0000000001
 43
0.0000000001
 40
0.0
 40
0.0
 40
0.0
 40
0.0
 40
0.0909090909090909
 40
0.0909090909090909
 40
0.0909090909090909
 40
0.0909090909090909
 40
0.1818181818181818
 40
0.1818181818181818
 40
0.1818181818181818
 40
0.1818181818181818
 40
0.2727272727272727
 40
0.2727272727272727
 40
0.2727272727272727
 40
0.2727272727272727
 40
0.3636363636363637
 40
0.3636363636363637
 40
0.3636363636363637
 40
0.3636363636363637
 40
0.4545454545454546
 40
0.4545454545454546
 40
0.4545454545454546
 40
0.4545454545454546
 40
0.5454545454545455
 40
0.5454545454545455
 40
0.5454545454545455
 40
0.5454545454545455
 40
0.6363636363636365
 40
0.6363636363636365
 40
0.6363636363636365
 40
0.6363636363636365
 40
0.7272727272727274
 40
0.7272727272727274
 40
0.7272727272727274
 40
0.7272727272727274
 40
0.8181818181818183
 40
0.8181818181818183
 40
0.8181818181818183
 40
0.8181818181818183
 40
0.9090909090909093
 40
0.9090909090909093
 40
0.9090909090909093
 40
0.9090909090909093
 40
1.0
 40
1.0
 40
1.0
 40
1.0
 10
-1.48482
 20
8.9417200000000001
 30
0.0
 10
-1.48482
 20
8.9417200000000001
 30
0.0
 10
-1.4428300000000001
 20
8.9417200000000001
 30
0.0
 10
-1.4428300000000001
 20
8.9417200000000001
 30
0.0
 10
-1.4428300000000001
 20
8.9417200000000001
 30
0.0
 10
-1.4428300000000001
 20
8.9417200000000001
 30
0.0
 10
-1.4428300000000001
 20
9.1054999999999993
 30
0.0
 10
-1.4428300000000001
 20
9.1054999999999993
 30
0.0
 10
-1.4428300000000001
 20
9.1054999999999993
 30
0.0
 10
-1.4428300000000001
 20
9.1054999999999993
 30
0.0
 10
-1.29863
 20
8.9417200000000001
 30
0.0
 10
-1.29863
 20
8.9417200000000001
 30
0.0
 10
-1.29863
 20
8.9417200000000001
 30
0.0
 10
-1.29863
 20
8.9417200000000001
 30
0.0
 10
-1.24474
 20
8.9417200000000001
 30
0.0
 10
-1.24474
 20
8.9417200000000001
 30
0.0
 10
-1.24474
 20
8.9417200000000001
 30
0.0
 10
-1.24474
 20
8.9417200000000001
 30
0.0
 10
-1.40293
 20
9.1168200000000006
 30
0.0
 10
-1.40293
 20
9.1168200000000006
 30
0.0
 10
-1.40293
 20
9.1168200000000006
 30
0.0
 10
-1.40293
 20
9.1168200000000006
 30
0.0
 10
-1.25664
 20
9.2692700000000006
 30
0.0
 10
-1.25664
 20
9.2692700000000006
 30
0.0
 10
-1.25664
 20
9.2692700000000006
 30
0.0
 10
-1.25664
 20
9.2692700000000006
 30
0.0
 10
-1.30705
 20
9.2692700000000006
 30
0.0
 10
-1.30705
 20
9.2692700000000006
 30
0.0
 10
-1.30705
 20
9.2692700000000006
 30
0.0
 10
-1.30705
 20
9.2692700000000006
 30
0.0
 10
-1.4428300000000001
 20
9.1228499999999997
 30
0.0
 10
-1.4428300000000001
 20
9.1228499999999997
 30
0.0
 10
-1.4428300000000001
 20
9.1228499999999997
 30
0.0
 10
-1.4428300000000001
 20
9.1228499999999997
 30
0.0
 10
-1.4428300000000001
 20
9.2692700000000006
 30
0.0
 10
-1.4428300000000001
 20
9.2692700000000006
 30
0.0
 10
-1.4428300000000001
 20
9.2692700000000006
 30
0.0
 10
-1.4428300000000001
 20
9.2692700000000006
 30
0.0
 10
-1.48482
 20
9.2692700000000006
 30
0.0
 10
-1.48482
 20
9.2692700000000006
 30
0.0
 10
-1.48482
 20
9.2692700000000006
 30
0.0
 10
-1.48482
 20
9.2692700000000006
 30
0.0
 10
-1.48482
 20
8.9417200000000001
 30
0.0
 10
-1.48482
 20
8.9417200000000001
 30
0.0
  0
SPLINE
  5
41
100
AcDbEntity
  8
Layer 1
 62
   178
100
AcDbSpline
210
0.0
220
0.0
230
1.0
 70
     1
 71
     3
 72
    36
 73
    32
 74
     0
 42
0.0000000001
 43
0.0000000001
 40
0.0
 40
0.0
 40
0.0
 40
0.0
 40
0.125
 40
0.125
 40
0.125
 40
0.125
 40
0.25
 40
0.25
 40
0.25
 40
0.25
 40
0.375
 40
0.375
 40
0.375
 40
0.375
 40
0.5
 40
0.5
 40
0.5
 40
0.5
 40
0.625
 40
0.625
 40
0.625
 40
0.625
 40
0.75
 40
0.75
 40
0.75
 40
0.75
 40
0.875
 40
0.875
 40
0.875
 40
0.875
 40
1.0
 40
1.0
 40
1.0
 40
1.0
 10
-0.75678
 20
8.9417200000000001
 30
0.0
 10
-0.75678
 20
8.9417200000000001
 30
0.0
 10
-0.7148
 20
8.9417200000000001
 30
0.0
 10
-0.7148
 20
8.9417200000000001
 30
0.0
 10
-0.7148
 20
8.9417200000000001
 30
0.0
 10
-0.7148
 20
8.9417200000000001
 30
0.0
 10
-0.7148
 20
9.2330500000000004
 30
0.0
 10
-0.7148
 20
9.2330500000000004
 30
0.0
 10
-0.7148
 20
9.2330500000000004
 30
0.0
 10
-0.7148
 20
9.2330500000000004
 30
0.0
 10
-0.607
 20
9.2330500000000004
 30
0.0
 10
-0.607
 20
9.2330500000000004
 30
0.0
 10
-0.607
 20
9.2330500000000004
 30
0.0
 10
-0.607
 20
9.2330500000000004
 30
0.0
 10
-0.607
 20
9.2692700000000006
 30
0.0
 10
-0.607
 20
9.2692700000000006
 30
0.0
 10
-0.607
 20
9.2692700000000006
 30
0.0
 10
-0.607
 20
9.2692700000000006
 30
0.0
 10
-0.86458
 20
9.2692700000000006
 30
0.0
 10
-0.86458
 20
9.2692700000000006
 30
0.0
 10
-0.86458
 20
9.2692700000000006
 30
0.0
 10
-0.86458
 20
9.2692700000000006
 30
0.0
 10
-0.86458
 20
9.2330500000000004
 30
0.0
 10
-0.86458
 20
9.2330500000000004
 30
0.0
 10
-0.86458
 20
9.2330500000000004
 30
0.0
 10
-0.86458
 20
9.2330500000000004
 30
0.0
 10
-0.75678
 20
9.2330500000000004
 30
0.0
 10
-0.75678
 20
9.2330500000000004
 30
0.0
 10
-0.75678
 20
9.2330500000000004
 30
0.0
 10
-0.75678
 20
9.2330500000000004
 30
0.0
 10
-0.75678
 20
8.9417200000000001
 30
0.0
 10
-0.75678
 20
8.9417200000000001
 30
0.0
  0
SPLINE
  5
42
100
AcDbEntity
  8
Layer 1
 62
   178
100
AcDbSpline
210
0.0
220
0.0
230
1.0
 70
     1
 71
     3
 72
    20
 73
    16
 74
     0
 42
0.0000000001
 43
0.0000000001
 40
0.0
 40
0.0
 40
0.0
 40
0.0
 40
0.25
 40
0.25
 40
0.25
 40
0.25
 40
0.5
 40
0.5
 40
0.5
 40
0.5
 40
0.75
 40
0.75
 40
0.75
 40
0.75
 40
1.0
 40
1.0
 40
1.0
 40
1.0
 10
-0.03719
 20
8.9280100000000004
 30
0.0
 10
0.06013
 20
8.9280100000000004
 30
0.0
 10
0.12802
 20
9.0036100000000001
 30
0.0
 10
0.12802
 20
9.1054999999999993
 30
0.0
 10
0.12802
 20
9.1054999999999993
 30
0.0
 10
0.12802
 20
9.2073900000000002
 30
0.0
 10
0.06013
 20
9.2828499999999998
 30
0.0
 10
-0.03719
 20
9.2828499999999998
 30
0.0
 10
-0.03719
 20
9.2828499999999998
 30
0.0
 10
-0.13447
 20
9.2828499999999998
 30
0.0
 10
-0.20236
 20
9.2073900000000002
 30
0.0
 10
-0.20236
 20
9.1054999999999993
 30
0.0
 10
-0.20236
 20
9.1054999999999993
 30
0.0
 10
-0.20236
 20
9.0036100000000001
 30
0.0
 10
-0.13447
 20
8.9280100000000004
 30
0.0
 10
-0.03719
 20
8.9280100000000004
 30
0.0
  0
SPLINE
  5
43
100
AcDbEntity
  8
Layer 1
 62
   178
100
AcDbSpline
210
0.0
220
0.0
230
1.0
 70
     1
 71
     3
 72
    20
 73
    16
 74
     0
 42
0.0000000001
 43
0.0000000001
 40
0.0
 40
0.0
 40
0.0
 40
0.0
 40
0.25
 40
0.25
 40
0.25
 40
0.25
 40
0.5
 40
0.5
 40
0.5
 40
0.5
 40
0.75
 40
0.75
 40
0.75
 40
0.75
 40
1.0
 40
1.0
 40
1.0
 40
1.0
 10
-0.03719
 20
8.9643700000000006
 30
0.0
 10
-0.10227
 20
8.9643700000000006
 30
0.0
 10
-0.15756
 20
9.0202100000000005
 30
0.0
 10
-0.15756
 20
9.1054999999999993
 30
0.0
 10
-0.15756
 20
9.1054999999999993
 30
0.0
 10
-0.15756
 20
9.1907800000000002
 30
0.0
 10
-0.10227
 20
9.2466399999999993
 30
0.0
 10
-0.03719
 20
9.2466399999999993
 30
0.0
 10
-0.03719
 20
9.2466399999999993
 30
0.0
 10
0.02792
 20
9.2466399999999993
 30
0.0
 10
0.08321
 20
9.1907800000000002
 30
0.0
 10
0.08321
 20
9.1054999999999993
 30
0.0
 10
0.08321
 20
9.1054999999999993
 30
0.0
 10
0.08321
 20
9.0202100000000005
 30
0.0
 10
0.02792
 20
8.9643700000000006
 30
0.0
 10
-0.03719
 20
8.9643700000000006
 30
0.0
  0
SPLINE
  5
44
100
AcDbEntity
  8
Layer 1
 62
   178
100
AcDbSpline
210
0.0
220
0.0
230
1.0
 70
     1
 71
     3
 72
    40
 73
    36
 74
     0
 42
0.0000000001
 43
0.0000000001
 40
0.0
 40
0.0
 40
0.0
 40
0.0
 40
0.1111111111111111
 40
0.1111111111111111
 40
0.1111111111111111
 40
0.1111111111111111
 40
0.2222222222222222
 40
0.2222222222222222
 40
0.2222222222222222
 40
0.2222222222222222
 40
0.3333333333333333
 40
0.3333333333333333
 40
0.3333333333333333
 40
0.3333333333333333
 40
0.4444444444444444
 40
0.4444444444444444
 40
0.4444444444444444
 40
0.4444444444444444
 40
0.5555555555555556
 40
0.5555555555555556
 40
0.5555555555555556
 40
0.5555555555555556
 40
0.6666666666666667
 40
0.6666666666666667
 40
0.6666666666666667
 40
0.6666666666666667
 40
0.7777777777777779
 40
0.7777777777777779
 40
0.7777777777777779
 40
0.7777777777777779
 40
0.8888888888888891
 40
0.8888888888888891
 40
0.8888888888888891
 40
0.8888888888888891
 40
1.0
 40
1.0
 40
1.0
 40
1.0
 10
0.57678
 20
9.2692700000000006
 30
0.0
 10
0.57678
 20
9.2692700000000006
 30
0.0
 10
0.57678
 20
8.7831100000000006
 30
0.0
 10
0.57678
 20
8.7831100000000006
 30
0.0
 10
0.57678
 20
8.7831100000000006
 30
0.0
 10
0.57678
 20
8.7831100000000006
 30
0.0
 10
0.61877
 20
8.7831100000000006
 30
0.0
 10
0.61877
 20
8.7831100000000006
 30
0.0
 10
0.61877
 20
8.7831100000000006
 30
0.0
 10
0.61877
 20
8.7831100000000006
 30
0.0
 10
0.61877
 20
8.9922799999999992
 30
0.0
 10
0.61877
 20
8.9922799999999992
 30
0.0
 10
0.61877
 20
8.9922799999999992
 30
0.0
 10
0.63417
 20
8.96814
 30
0.0
 10
0.66706
 20
8.9280100000000004
 30
0.0
 10
0.73076
 20
8.9280100000000004
 30
0.0
 10
0.73076
 20
8.9280100000000004
 30
0.0
 10
0.82665
 20
8.9280100000000004
 30
0.0
 10
0.88614
 20
9.0058600000000002
 30
0.0
 10
0.88614
 20
9.1054999999999993
 30
0.0
 10
0.88614
 20
9.1054999999999993
 30
0.0
 10
0.88614
 20
9.2111599999999996
 30
0.0
 10
0.82244
 20
9.2828499999999998
 30
0.0
 10
0.7293500000000001
 20
9.2828499999999998
 30
0.0
 10
0.7293500000000001
 20
9.2828499999999998
 30
0.0
 10
0.66916
 20
9.2828499999999998
 30
0.0
 10
0.63486
 20
9.2488899999999994
 30
0.0
 10
0.61596
 20
9.2111599999999996
 30
0.0
 10
0.61596
 20
9.2111599999999996
 30
0.0
 10
0.61596
 20
9.2111599999999996
 30
0.0
 10
0.61596
 20
9.2692700000000006
 30
0.0
 10
0.61596
 20
9.2692700000000006
 30
0.0
 10
0.61596
 20
9.2692700000000006
 30
0.0
 10
0.61596
 20
9.2692700000000006
 30
0.0
 10
0.57678
 20
9.2692700000000006
 30
0.0
 10
0.57678
 20
9.2692700000000006
 30
0.0
  0
SPLINE
  5
45
100
AcDbEntity
  8
Layer 1
 62
   178
100
AcDbSpline
210
0.0
220
0.0
230
1.0
 70
     1
 71
     3
 72
    20
 73
    16
 74
     0
 42
0.0000000001
 43
0.0000000001
 40
0.0
 40
0.0
 40
0.0
 40
0.0
 40
0.25
 40
0.25
 40
0.25
 40
0.25
 40
0.5
 40
0.5
 40
0.5
 40
0.5
 40
0.75
 40
0.75
 40
0.75
 40
0.75
 40
1.0
 40
1.0
 40
1.0
 40
1.0
 10
0.73076
 20
8.9643700000000006
 30
0.0
 10
0.6719500000000001
 20
8.9643700000000006
 30
0.0
 10
0.61596
 20
9.0134100000000004
 30
0.0
 10
0.61596
 20
9.1054999999999993
 30
0.0
 10
0.61596
 20
9.1054999999999993
 30
0.0
 10
0.61596
 20
9.1824700000000004
 30
0.0
 10
0.65935
 20
9.2466399999999993
 30
0.0
 10
0.72516
 20
9.2466399999999993
 30
0.0
 10
0.72516
 20
9.2466399999999993
 30
0.0
 10
0.8091699999999999
 20
9.2466399999999993
 30
0.0
 10
0.84134
 20
9.1711600000000004
 30
0.0
 10
0.84134
 20
9.1054999999999993
 30
0.0
 10
0.84134
 20
9.1054999999999993
 30
0.0
 10
0.84134
 20
9.0262399999999996
 30
0.0
 10
0.80076
 20
8.9643700000000006
 30
0.0
 10
0.73076
 20
8.9643700000000006
 30
0.0
  0
SPLINE
  5
46
100
AcDbEntity
  8
Layer 1
 62
   178
100
AcDbSpline
210
0.0
220
0.0
230
1.0
 70
     1
 71
     3
 72
    44
 73
    40
 74
     0
 42
0.0000000001
 43
0.0000000001
 40
0.0
 40
0.0
 40
0.0
 40
0.0
 40
0.1
 40
0.1
 40
0.1
 40
0.1
 40
0.2
 40
0.2
 40
0.2
 40
0.2
 40
0.3
 40
0.3
 40
0.3
 40
0.3
 40
0.4
 40
0.4
 40
0.4
 40
0.4
 40
0.5
 40
0.5
 40
0.5
 40
0.5
 40
0.6
 40
0.6
 40
0.6
 40
0.6
 40
0.7
 40
0.7
 40
0.7
 40
0.7
 40
0.7999999999999999
 40
0.7999999999999999
 40
0.7999999999999999
 40
0.7999999999999999
 40
0.8999999999999999
 40
0.8999999999999999
 40
0.8999999999999999
 40
0.8999999999999999
 40
1.0
 40
1.0
 40
1.0
 40
1.0
 10
1.58338
 20
9.0051299999999994
 30
0.0
 10
1.5602799999999999
 20
8.9832300000000007
 30
0.0
 10
1.5280899999999999
 20
8.9643700000000006
 30
0.0
 10
1.48749
 20
8.9643700000000006
 30
0.0
 10
1.48749
 20
8.9643700000000006
 30
0.0
 10
1.41679
 20
8.9643700000000006
 30
0.0
 10
1.36009
 20
9.0194500000000009
 30
0.0
 10
1.36009
 20
9.1054999999999993
 30
0.0
 10
1.36009
 20
9.1054999999999993
 30
0.0
 10
1.36009
 20
9.1824700000000004
 30
0.0
 10
1.40838
 20
9.2466399999999993
 30
0.0
 10
1.4917
 20
9.2466399999999993
 30
0.0
 10
1.4917
 20
9.2466399999999993
 30
0.0
 10
1.5168900000000001
 20
9.2466399999999993
 30
0.0
 10
1.54278
 20
9.2413600000000002
 30
0.0
 10
1.58338
 20
9.2103999999999999
 30
0.0
 10
1.58338
 20
9.2103999999999999
 30
0.0
 10
1.58338
 20
9.2103999999999999
 30
0.0
 10
1.58338
 20
9.2549399999999995
 30
0.0
 10
1.58338
 20
9.2549399999999995
 30
0.0
 10
1.58338
 20
9.2549399999999995
 30
0.0
 10
1.56728
 20
9.2670100000000009
 30
0.0
 10
1.53928
 20
9.2828499999999998
 30
0.0
 10
1.48889
 20
9.2828499999999998
 30
0.0
 10
1.48889
 20
9.2828499999999998
 30
0.0
 10
1.38879
 20
9.2828499999999998
 30
0.0
 10
1.3152999999999999
 20
9.2103999999999999
 30
0.0
 10
1.3152999999999999
 20
9.1054999999999993
 30
0.0
 10
1.3152999999999999
 20
9.1054999999999993
 30
0.0
 10
1.3152999999999999
 20
9.0013400000000008
 30
0.0
 10
1.3895
 20
8.9280100000000004
 30
0.0
 10
1.4895799999999999
 20
8.9280100000000004
 30
0.0
 10
1.4895799999999999
 20
8.9280100000000004
 30
0.0
 10
1.5329699999999999
 20
8.9280100000000004
 30
0.0
 10
1.5637799999999999
 20
8.9447500000000009
 30
0.0
 10
1.58338
 20
8.9575800000000001
 30
0.0
 10
1.58338
 20
8.9575800000000001
 30
0.0
 10
1.58338
 20
8.9575800000000001
 30
0.0
 10
1.58338
 20
9.0051299999999994
 30
0.0
 10
1.58338
 20
9.0051299999999994
 30
0.0
  0
SPLINE
  5
47
100
AcDbEntity
  8
Layer 1
 62
   178
100
AcDbSpline
210
0.0
220
0.0
230
1.0
 70
     1
 71
     3
 72
    48
 73
    44
 74
     0
 42
0.0000000001
 43
0.0000000001
 40
0.0
 40
0.0
 40
0.0
 40
0.0
 40
0.0909090909090909
 40
0.0909090909090909
 40
0.0909090909090909
 40
0.0909090909090909
 40
0.1818181818181818
 40
0.1818181818181818
 40
0.1818181818181818
 40
0.1818181818181818
 40
0.2727272727272727
 40
0.2727272727272727
 40
0.2727272727272727
 40
0.2727272727272727
 40
0.3636363636363637
 40
0.3636363636363637
 40
0.3636363636363637
 40
0.3636363636363637
 40
0.4545454545454546
 40
0.4545454545454546
 40
0.4545454545454546
 40
0.4545454545454546
 40
0.5454545454545455
 40
0.5454545454545455
 40
0.5454545454545455
 40
0.5454545454545455
 40
0.6363636363636365
 40
0.6363636363636365
 40
0.6363636363636365
 40
0.6363636363636365
 40
0.7272727272727274
 40
0.7272727272727274
 40
0.7272727272727274
 40
0.7272727272727274
 40
0.8181818181818183
 40
0.8181818181818183
 40
0.8181818181818183
 40
0.8181818181818183
 40
0.9090909090909093
 40
0.9090909090909093
 40
0.9090909090909093
 40
0.9090909090909093
 40
1.0
 40
1.0
 40
1.0
 40
1.0
 10
2.01953
 20
8.9417200000000001
 30
0.0
 10
2.01953
 20
8.9417200000000001
 30
0.0
 10
2.0615299999999999
 20
8.9417200000000001
 30
0.0
 10
2.0615299999999999
 20
8.9417200000000001
 30
0.0
 10
2.0615299999999999
 20
8.9417200000000001
 30
0.0
 10
2.0615299999999999
 20
8.9417200000000001
 30
0.0
 10
2.0615299999999999
 20
9.1054999999999993
 30
0.0
 10
2.0615299999999999
 20
9.1054999999999993
 30
0.0
 10
2.0615299999999999
 20
9.1054999999999993
 30
0.0
 10
2.0615299999999999
 20
9.1054999999999993
 30
0.0
 10
2.2057199999999999
 20
8.9417200000000001
 30
0.0
 10
2.2057199999999999
 20
8.9417200000000001
 30
0.0
 10
2.2057199999999999
 20
8.9417200000000001
 30
0.0
 10
2.2057199999999999
 20
8.9417200000000001
 30
0.0
 10
2.2596099999999999
 20
8.9417200000000001
 30
0.0
 10
2.2596099999999999
 20
8.9417200000000001
 30
0.0
 10
2.2596099999999999
 20
8.9417200000000001
 30
0.0
 10
2.2596099999999999
 20
8.9417200000000001
 30
0.0
 10
2.1014400000000002
 20
9.1168200000000006
 30
0.0
 10
2.1014400000000002
 20
9.1168200000000006
 30
0.0
 10
2.1014400000000002
 20
9.1168200000000006
 30
0.0
 10
2.1014400000000002
 20
9.1168200000000006
 30
0.0
 10
2.2477200000000002
 20
9.2692700000000006
 30
0.0
 10
2.2477200000000002
 20
9.2692700000000006
 30
0.0
 10
2.2477200000000002
 20
9.2692700000000006
 30
0.0
 10
2.2477200000000002
 20
9.2692700000000006
 30
0.0
 10
2.1973099999999999
 20
9.2692700000000006
 30
0.0
 10
2.1973099999999999
 20
9.2692700000000006
 30
0.0
 10
2.1973099999999999
 20
9.2692700000000006
 30
0.0
 10
2.1973099999999999
 20
9.2692700000000006
 30
0.0
 10
2.0615299999999999
 20
9.1228499999999997
 30
0.0
 10
2.0615299999999999
 20
9.1228499999999997
 30
0.0
 10
2.0615299999999999
 20
9.1228499999999997
 30
0.0
 10
2.0615299999999999
 20
9.1228499999999997
 30
0.0
 10
2.0615299999999999
 20
9.2692700000000006
 30
0.0
 10
2.0615299999999999
 20
9.2692700000000006
 30
0.0
 10
2.0615299999999999
 20
9.2692700000000006
 30
0.0
 10
2.0615299999999999
 20
9.2692700000000006
 30
0.0
 10
2.01953
 20
9.2692700000000006
 30
0.0
 10
2.01953
 20
9.2692700000000006
 30
0.0
 10
2.01953
 20
9.2692700000000006
 30
0.0
 10
2.01953
 20
9.2692700000000006
 30
0.0
 10
2.01953
 20
8.9417200000000001
 30
0.0
 10
2.01953
 20
8.9417200000000001
 30
0.0
  0
SPLINE
  5
48
100
AcDbEntity
  8
Layer 1
 62
   178
100
AcDbSpline
210
0.0
220
0.0
230
1.0
 70
     1
 71
     3
 72
    20
 73
    16
 74
     0
 42
0.0000000001
 43
0.0000000001
 40
0.0
 40
0.0
 40
0.0
 40
0.0
 40
0.25
 40
0.25
 40
0.25
 40
0.25
 40
0.5
 40
0.5
 40
0.5
 40
0.5
 40
0.75
 40
0.75
 40
0.75
 40
0.75
 40
1.0
 40
1.0
 40
1.0
 40
1.0
 10
2.82945
 20
8.9280100000000004
 30
0.0
 10
2.9267500000000002
 20
8.9280100000000004
 30
0.0
 10
2.99464
 20
9.0036100000000001
 30
0.0
 10
2.99464
 20
9.1054999999999993
 30
0.0
 10
2.99464
 20
9.1054999999999993
 30
0.0
 10
2.99464
 20
9.2073900000000002
 30
0.0
 10
2.9267500000000002
 20
9.2828499999999998
 30
0.0
 10
2.82945
 20
9.2828499999999998
 30
0.0
 10
2.82945
 20
9.2828499999999998
 30
0.0
 10
2.7321599999999999
 20
9.2828499999999998
 30
0.0
 10
2.6642700000000001
 20
9.2073900000000002
 30
0.0
 10
2.6642700000000001
 20
9.1054999999999993
 30
0.0
 10
2.6642700000000001
 20
9.1054999999999993
 30
0.0
 10
2.6642700000000001
 20
9.0036100000000001
 30
0.0
 10
2.7321599999999999
 20
8.9280100000000004
 30
0.0
 10
2.82945
 20
8.9280100000000004
 30
0.0
  0
SPLINE
  5
49
100
AcDbEntity
  8
Layer 1
 62
   178
100
AcDbSpline
210
0.0
220
0.0
230
1.0
 70
     1
 71
     3
 72
    20
 73
    16
 74
     0
 42
0.0000000001
 43
0.0000000001
 40
0.0
 40
0.0
 40
0.0
 40
0.0
 40
0.25
 40
0.25
 40
0.25
 40
0.25
 40
0.5
 40
0.5
 40
0.5
 40
0.5
 40
0.75
 40
0.75
 40
0.75
 40
0.75
 40
1.0
 40
1.0
 40
1.0
 40
1.0
 10
2.82945
 20
8.9643700000000006
 30
0.0
 10
2.7643499999999999
 20
8.9643700000000006
 30
0.0
 10
2.70906
 20
9.0202100000000005
 30
0.0
 10
2.70906
 20
9.1054999999999993
 30
0.0
 10
2.70906
 20
9.1054999999999993
 30
0.0
 10
2.70906
 20
9.1907800000000002
 30
0.0
 10
2.7643499999999999
 20
9.2466399999999993
 30
0.0
 10
2.82945
 20
9.2466399999999993
 30
0.0
 10
2.82945
 20
9.2466399999999993
 30
0.0
 10
2.8945599999999998
 20
9.2466399999999993
 30
0.0
 10
2.9498500000000001
 20
9.1907800000000002
 30
0.0
 10
2.9498500000000001
 20
9.1054999999999993
 30
0.0
 10
2.9498500000000001
 20
9.1054999999999993
 30
0.0
 10
2.9498500000000001
 20
9.0202100000000005
 30
0.0
 10
2.8945599999999998
 20
8.9643700000000006
 30
0.0
 10
2.82945
 20
8.9643700000000006
 30
0.0
  0
SPLINE
  5
4A
100
AcDbEntity
  8
Layer 1
 62
   178
100
AcDbSpline
210
0.0
220
0.0
230
1.0
 70
     1
 71
     3
 72
    40
 73
    36
 74
     0
 42
0.0000000001
 43
0.0000000001
 40
0.0
 40
0.0
 40
0.0
 40
0.0
 40
0.1111111111111111
 40
0.1111111111111111
 40
0.1111111111111111
 40
0.1111111111111111
 40
0.2222222222222222
 40
0.2222222222222222
 40
0.2222222222222222
 40
0.2222222222222222
 40
0.3333333333333333
 40
0.3333333333333333
 40
0.3333333333333333
 40
0.3333333333333333
 40
0.4444444444444444
 40
0.4444444444444444
 40
0.4444444444444444
 40
0.4444444444444444
 40
0.5555555555555556
 40
0.5555555555555556
 40
0.5555555555555556
 40
0.5555555555555556
 40
0.6666666666666667
 40
0.6666666666666667
 40
0.6666666666666667
 40
0.6666666666666667
 40
0.7777777777777779
 40
0.7777777777777779
 40
0.7777777777777779
 40
0.7777777777777779
 40
0.8888888888888891
 40
0.8888888888888891
 40
0.8888888888888891
 40
0.8888888888888891
 40
1.0
 40
1.0
 40
1.0
 40
1.0
 10
3.6876899999999999
 20
9.0451200000000007
 30
0.0
 10
3.65408
 20
8.96889
 30
0.0
 10
3.6043799999999999
 20
8.9643700000000006
 30
0.0
 10
3.5798899999999998
 20
8.9643700000000006
 30
0.0
 10
3.5798899999999998
 20
8.9643700000000006
 30
0.0
 10
3.5049899999999998
 20
8.9643700000000006
 30
0.0
 10
3.46719
 20
9.0375800000000002
 30
0.0
 10
3.4685999999999999
 20
9.1017200000000003
 30
0.0
 10
3.4685999999999999
 20
9.1017200000000003
 30
0.0
 10
3.4685999999999999
 20
9.1017200000000003
 30
0.0
 10
3.7198699999999998
 20
9.1017200000000003
 30
0.0
 10
3.7198699999999998
 20
9.1017200000000003
 30
0.0
 10
3.7198699999999998
 20
9.1017200000000003
 30
0.0
 10
3.7198699999999998
 20
9.1017200000000003
 30
0.0
 10
3.7198699999999998
 20
9.1236099999999993
 30
0.0
 10
3.7198699999999998
 20
9.1236099999999993
 30
0.0
 10
3.7198699999999998
 20
9.1236099999999993
 30
0.0
 10
3.7198699999999998
 20
9.1862600000000008
 30
0.0
 10
3.68418
 20
9.2828499999999998
 30
0.0
 10
3.5798899999999998
 20
9.2828499999999998
 30
0.0
 10
3.5798899999999998
 20
9.2828499999999998
 30
0.0
 10
3.4783900000000001
 20
9.2828499999999998
 30
0.0
 10
3.4238
 20
9.1983300000000003
 30
0.0
 10
3.4238
 20
9.1054999999999993
 30
0.0
 10
3.4238
 20
9.1054999999999993
 30
0.0
 10
3.4238
 20
9.0172000000000008
 30
0.0
 10
3.4783900000000001
 20
8.9280100000000004
 30
0.0
 10
3.5798899999999998
 20
8.9280100000000004
 30
0.0
 10
3.5798899999999998
 20
8.9280100000000004
 30
0.0
 10
3.65198
 20
8.9280100000000004
 30
0.0
 10
3.69469
 20
8.9734099999999994
 30
0.0
 10
3.7198699999999998
 20
9.0277600000000007
 30
0.0
 10
3.7198699999999998
 20
9.0277600000000007
 30
0.0
 10
3.7198699999999998
 20
9.0277600000000007
 30
0.0
 10
3.6876899999999999
 20
9.0451200000000007
 30
0.0
 10
3.6876899999999999
 20
9.0451200000000007
 30
0.0
  0
SPLINE
  5
4B
100
AcDbEntity
  8
Layer 1
 62
   178
100
AcDbSpline
210
0.0
220
0.0
230
1.0
 70
     1
 71
     3
 72
    16
 73
    12
 74
     0
 42
0.0000000001
 43
0.0000000001
 40
0.0
 40
0.0
 40
0.0
 40
0.0
 40
0.3333333333333333
 40
0.3333333333333333
 40
0.3333333333333333
 40
0.3333333333333333
 40
0.6666666666666666
 40
0.6666666666666666
 40
0.6666666666666666
 40
0.6666666666666666
 40
1.0
 40
1.0
 40
1.0
 40
1.0
 10
3.4721000000000002
 20
9.13795
 30
0.0
 10
3.4805000000000001
 20
9.2020999999999997
 30
0.0
 10
3.5232000000000001
 20
9.2466399999999993
 30
0.0
 10
3.5805899999999999
 20
9.2466399999999993
 30
0.0
 10
3.5805899999999999
 20
9.2466399999999993
 30
0.0
 10
3.6421899999999998
 20
9.2466399999999993
 30
0.0
 10
3.6764600000000001
 20
9.1907800000000002
 30
0.0
 10
3.67787
 20
9.13795
 30
0.0
 10
3.67787
 20
9.13795
 30
0.0
 10
3.67787
 20
9.13795
 30
0.0
 10
3.4721000000000002
 20
9.13795
 30
0.0
 10
3.4721000000000002
 20
9.13795
 30
0.0
  0
SPLINE
  5
4C
100
AcDbEntity
  8
Layer 1
 62
   178
100
AcDbSpline
210
0.0
220
0.0
230
1.0
 70
     1
 71
     3
 72
    44
 73
    40
 74
     0
 42
0.0000000001
 43
0.0000000001
 40
0.0
 40
0.0
 40
0.0
 40
0.0
 40
0.1
 40
0.1
 40
0.1
 40
0.1
 40
0.2
 40
0.2
 40
0.2
 40
0.2
 40
0.3
 40
0.3
 40
0.3
 40
0.3
 40
0.4
 40
0.4
 40
0.4
 40
0.4
 40
0.5
 40
0.5
 40
0.5
 40
0.5
 40
0.6
 40
0.6
 40
0.6
 40
0.6
 40
0.7
 40
0.7
 40
0.7
 40
0.7
 40
0.7999999999999999
 40
0.7999999999999999
 40
0.7999999999999999
 40
0.7999999999999999
 40
0.8999999999999999
 40
0.8999999999999999
 40
0.8999999999999999
 40
0.8999999999999999
 40
1.0
 40
1.0
 40
1.0
 40
1.0
 10
4.67889
 20
9.2020999999999997
 30
0.0
 10
4.6907800000000002
 20
9.3492800000000003
 30
0.0
 10
4.7488900000000003
 20
9.3802199999999996
 30
0.0
 10
4.7999799999999997
 20
9.39757
 30
0.0
 10
4.7999799999999997
 20
9.39757
 30
0.0
 10
4.8671800000000003
 20
9.4202200000000005
 30
0.0
 10
4.9329900000000002
 20
9.4119100000000007
 30
0.0
 10
4.96868
 20
9.4964499999999994
 30
0.0
 10
4.96868
 20
9.4964499999999994
 30
0.0
 10
4.96868
 20
9.4964499999999994
 30
0.0
 10
4.92387
 20
9.4964499999999994
 30
0.0
 10
4.92387
 20
9.4964499999999994
 30
0.0
 10
4.92387
 20
9.4964499999999994
 30
0.0
 10
4.8965800000000002
 20
9.4466300000000007
 30
0.0
 10
4.8363800000000001
 20
9.4617299999999993
 30
0.0
 10
4.7663799999999998
 20
9.4322900000000001
 30
0.0
 10
4.7663799999999998
 20
9.4322900000000001
 30
0.0
 10
4.6984899999999996
 20
9.4028700000000001
 30
0.0
 10
4.6382899999999996
 20
9.3326700000000002
 30
0.0
 10
4.6382899999999996
 20
9.1530500000000004
 30
0.0
 10
4.6382899999999996
 20
9.1530500000000004
 30
0.0
 10
4.6382899999999996
 20
9.0390899999999998
 30
0.0
 10
4.6781800000000002
 20
8.9280100000000004
 30
0.0
 10
4.8020899999999997
 20
8.9280100000000004
 30
0.0
 10
4.8020899999999997
 20
8.9280100000000004
 30
0.0
 10
4.8944799999999997
 20
8.9280100000000004
 30
0.0
 10
4.9644899999999996
 20
8.9945500000000003
 30
0.0
 10
4.9644899999999996
 20
9.1054999999999993
 30
0.0
 10
4.9644899999999996
 20
9.1054999999999993
 30
0.0
 10
4.9644899999999996
 20
9.2096400000000003
 30
0.0
 10
4.8972699999999998
 20
9.2828499999999998
 30
0.0
 10
4.8083999999999998
 20
9.2828499999999998
 30
0.0
 10
4.8083999999999998
 20
9.2828499999999998
 30
0.0
 10
4.7537799999999999
 20
9.2828499999999998
 30
0.0
 10
4.7040800000000003
 20
9.2534299999999998
 30
0.0
 10
4.6809900000000004
 20
9.2020999999999997
 30
0.0
 10
4.6809900000000004
 20
9.2020999999999997
 30
0.0
 10
4.6809900000000004
 20
9.2020999999999997
 30
0.0
 10
4.67889
 20
9.2020999999999997
 30
0.0
 10
4.67889
 20
9.2020999999999997
 30
0.0
  0
SPLINE
  5
4D
100
AcDbEntity
  8
Layer 1
 62
   178
100
AcDbSpline
210
0.0
220
0.0
230
1.0
 70
     1
 71
     3
 72
    20
 73
    16
 74
     0
 42
0.0000000001
 43
0.0000000001
 40
0.0
 40
0.0
 40
0.0
 40
0.0
 40
0.25
 40
0.25
 40
0.25
 40
0.25
 40
0.5
 40
0.5
 40
0.5
 40
0.5
 40
0.75
 40
0.75
 40
0.75
 40
0.75
 40
1.0
 40
1.0
 40
1.0
 40
1.0
 10
4.80138
 20
8.9643700000000006
 30
0.0
 10
4.7257999999999996
 20
8.9643700000000006
 30
0.0
 10
4.6830999999999996
 20
9.0330399999999997
 30
0.0
 10
4.6830999999999996
 20
9.1054999999999993
 30
0.0
 10
4.6830999999999996
 20
9.1054999999999993
 30
0.0
 10
4.6830999999999996
 20
9.1794600000000006
 30
0.0
 10
4.7285899999999996
 20
9.2466399999999993
 30
0.0
 10
4.80138
 20
9.2466399999999993
 30
0.0
 10
4.80138
 20
9.2466399999999993
 30
0.0
 10
4.8790800000000001
 20
9.2466399999999993
 30
0.0
 10
4.9196799999999996
 20
9.1756799999999998
 30
0.0
 10
4.9196799999999996
 20
9.1054999999999993
 30
0.0
 10
4.9196799999999996
 20
9.1054999999999993
 30
0.0
 10
4.9196799999999996
 20
9.0413399999999999
 30
0.0
 10
4.88748
 20
8.9643700000000006
 30
0.0
 10
4.80138
 20
8.9643700000000006
 30
0.0
  0
SPLINE
  5
4E
100
AcDbEntity
  8
Layer 1
 62
   178
100
AcDbSpline
210
0.0
220
0.0
230
1.0
 70
     1
 71
     3
 72
    48
 73
    44
 74
     0
 42
0.0000000001
 43
0.0000000001
 40
0.0
 40
0.0
 40
0.0
 40
0.0
 40
0.0909090909090909
 40
0.0909090909090909
 40
0.0909090909090909
 40
0.0909090909090909
 40
0.1818181818181818
 40
0.1818181818181818
 40
0.1818181818181818
 40
0.1818181818181818
 40
0.2727272727272727
 40
0.2727272727272727
 40
0.2727272727272727
 40
0.2727272727272727
 40
0.3636363636363637
 40
0.3636363636363637
 40
0.3636363636363637
 40
0.3636363636363637
 40
0.4545454545454546
 40
0.4545454545454546
 40
0.4545454545454546
 40
0.4545454545454546
 40
0.5454545454545455
 40
0.5454545454545455
 40
0.5454545454545455
 40
0.5454545454545455
 40
0.6363636363636365
 40
0.6363636363636365
 40
0.6363636363636365
 40
0.6363636363636365
 40
0.7272727272727274
 40
0.7272727272727274
 40
0.7272727272727274
 40
0.7272727272727274
 40
0.8181818181818183
 40
0.8181818181818183
 40
0.8181818181818183
 40
0.8181818181818183
 40
0.9090909090909093
 40
0.9090909090909093
 40
0.9090909090909093
 40
0.9090909090909093
 40
1.0
 40
1.0
 40
1.0
 40
1.0
 10
5.4594300000000002
 20
9.1281300000000005
 30
0.0
 10
5.4594300000000002
 20
9.1281300000000005
 30
0.0
 10
5.4594300000000002
 20
9.2692700000000006
 30
0.0
 10
5.4594300000000002
 20
9.2692700000000006
 30
0.0
 10
5.4594300000000002
 20
9.2692700000000006
 30
0.0
 10
5.4594300000000002
 20
9.2692700000000006
 30
0.0
 10
5.4174300000000004
 20
9.2692700000000006
 30
0.0
 10
5.4174300000000004
 20
9.2692700000000006
 30
0.0
 10
5.4174300000000004
 20
9.2692700000000006
 30
0.0
 10
5.4174300000000004
 20
9.2692700000000006
 30
0.0
 10
5.4174300000000004
 20
8.9417200000000001
 30
0.0
 10
5.4174300000000004
 20
8.9417200000000001
 30
0.0
 10
5.4174300000000004
 20
8.9417200000000001
 30
0.0
 10
5.4174300000000004
 20
8.9417200000000001
 30
0.0
 10
5.4594300000000002
 20
8.9417200000000001
 30
0.0
 10
5.4594300000000002
 20
8.9417200000000001
 30
0.0
 10
5.4594300000000002
 20
8.9417200000000001
 30
0.0
 10
5.4594300000000002
 20
8.9417200000000001
 30
0.0
 10
5.4594300000000002
 20
9.09192
 30
0.0
 10
5.4594300000000002
 20
9.09192
 30
0.0
 10
5.4594300000000002
 20
9.09192
 30
0.0
 10
5.4594300000000002
 20
9.09192
 30
0.0
 10
5.5161300000000004
 20
9.09192
 30
0.0
 10
5.5161300000000004
 20
9.09192
 30
0.0
 10
5.5161300000000004
 20
9.09192
 30
0.0
 10
5.5168200000000001
 20
9.01417
 30
0.0
 10
5.5756100000000002
 20
8.9280100000000004
 30
0.0
 10
5.6806200000000002
 20
8.9280100000000004
 30
0.0
 10
5.6806200000000002
 20
8.9280100000000004
 30
0.0
 10
5.7778999999999998
 20
8.9280100000000004
 30
0.0
 10
5.84579
 20
9.0036100000000001
 30
0.0
 10
5.84579
 20
9.1054999999999993
 30
0.0
 10
5.84579
 20
9.1054999999999993
 30
0.0
 10
5.84579
 20
9.2066400000000002
 30
0.0
 10
5.7778999999999998
 20
9.2828499999999998
 30
0.0
 10
5.6806200000000002
 20
9.2828499999999998
 30
0.0
 10
5.6806200000000002
 20
9.2828499999999998
 30
0.0
 10
5.5861099999999997
 20
9.2828499999999998
 30
0.0
 10
5.5287199999999999
 20
9.2179500000000001
 30
0.0
 10
5.5161300000000004
 20
9.1281300000000005
 30
0.0
 10
5.5161300000000004
 20
9.1281300000000005
 30
0.0
 10
5.5161300000000004
 20
9.1281300000000005
 30
0.0
 10
5.4594300000000002
 20
9.1281300000000005
 30
0.0
 10
5.4594300000000002
 20
9.1281300000000005
 30
0.0
  0
SPLINE
  5
4F
100
AcDbEntity
  8
Layer 1
 62
   178
100
AcDbSpline
210
0.0
220
0.0
230
1.0
 70
     1
 71
     3
 72
    20
 73
    16
 74
     0
 42
0.0000000001
 43
0.0000000001
 40
0.0
 40
0.0
 40
0.0
 40
0.0
 40
0.25
 40
0.25
 40
0.25
 40
0.25
 40
0.5
 40
0.5
 40
0.5
 40
0.5
 40
0.75
 40
0.75
 40
0.75
 40
0.75
 40
1.0
 40
1.0
 40
1.0
 40
1.0
 10
5.6806200000000002
 20
8.9643700000000006
 30
0.0
 10
5.6148100000000003
 20
8.9643700000000006
 30
0.0
 10
5.5609200000000003
 20
9.0202100000000005
 30
0.0
 10
5.5609200000000003
 20
9.1054999999999993
 30
0.0
 10
5.5609200000000003
 20
9.1054999999999993
 30
0.0
 10
5.5609200000000003
 20
9.1907800000000002
 30
0.0
 10
5.6148100000000003
 20
9.2466399999999993
 30
0.0
 10
5.6806200000000002
 20
9.2466399999999993
 30
0.0
 10
5.6806200000000002
 20
9.2466399999999993
 30
0.0
 10
5.7597100000000001
 20
9.2466399999999993
 30
0.0
 10
5.8010000000000002
 20
9.1734299999999998
 30
0.0
 10
5.8010000000000002
 20
9.1054999999999993
 30
0.0
 10
5.8010000000000002
 20
9.1054999999999993
 30
0.0
 10
5.8010000000000002
 20
9.0375800000000002
 30
0.0
 10
5.7597100000000001
 20
8.9643700000000006
 30
0.0
 10
5.6806200000000002
 20
8.9643700000000006
 30
0.0
  0
SPLINE
  5
50
100
AcDbEntity
  8
Layer 1
 62
   178
100
AcDbSpline
210
0.0
220
0.0
230
1.0
 70
     1
 71
     3
 72
    40
 73
    36
 74
     0
 42
0.0000000001
 43
0.0000000001
 40
0.0
 40
0.0
 40
0.0
 40
0.0
 40
0.1111111111111111
 40
0.1111111111111111
 40
0.1111111111111111
 40
0.1111111111111111
 40
0.2222222222222222
 40
0.2222222222222222
 40
0.2222222222222222
 40
0.2222222222222222
 40
0.3333333333333333
 40
0.3333333333333333
 40
0.3333333333333333
 40
0.3333333333333333
 40
0.4444444444444444
 40
0.4444444444444444
 40
0.4444444444444444
 40
0.4444444444444444
 40
0.5555555555555556
 40
0.5555555555555556
 40
0.5555555555555556
 40
0.5555555555555556
 40
0.6666666666666667
 40
0.6666666666666667
 40
0.6666666666666667
 40
0.6666666666666667
 40
0.7777777777777779
 40
0.7777777777777779
 40
0.7777777777777779
 40
0.7777777777777779
 40
0.8888888888888891
 40
0.8888888888888891
 40
0.8888888888888891
 40
0.8888888888888891
 40
1.0
 40
1.0
 40
1.0
 40
1.0
 10
6.2945500000000001
 20
9.2692700000000006
 30
0.0
 10
6.2945500000000001
 20
9.2692700000000006
 30
0.0
 10
6.2945500000000001
 20
8.7831100000000006
 30
0.0
 10
6.2945500000000001
 20
8.7831100000000006
 30
0.0
 10
6.2945500000000001
 20
8.7831100000000006
 30
0.0
 10
6.2945500000000001
 20
8.7831100000000006
 30
0.0
 10
6.3365400000000003
 20
8.7831100000000006
 30
0.0
 10
6.3365400000000003
 20
8.7831100000000006
 30
0.0
 10
6.3365400000000003
 20
8.7831100000000006
 30
0.0
 10
6.3365400000000003
 20
8.7831100000000006
 30
0.0
 10
6.3365400000000003
 20
8.9922799999999992
 30
0.0
 10
6.3365400000000003
 20
8.9922799999999992
 30
0.0
 10
6.3365400000000003
 20
8.9922799999999992
 30
0.0
 10
6.3519399999999999
 20
8.96814
 30
0.0
 10
6.38483
 20
8.9280100000000004
 30
0.0
 10
6.4485299999999999
 20
8.9280100000000004
 30
0.0
 10
6.4485299999999999
 20
8.9280100000000004
 30
0.0
 10
6.5444399999999998
 20
8.9280100000000004
 30
0.0
 10
6.6039300000000001
 20
9.0058600000000002
 30
0.0
 10
6.6039300000000001
 20
9.1054999999999993
 30
0.0
 10
6.6039300000000001
 20
9.1054999999999993
 30
0.0
 10
6.6039300000000001
 20
9.2111599999999996
 30
0.0
 10
6.5402300000000002
 20
9.2828499999999998
 30
0.0
 10
6.4471299999999996
 20
9.2828499999999998
 30
0.0
 10
6.4471299999999996
 20
9.2828499999999998
 30
0.0
 10
6.3869499999999997
 20
9.2828499999999998
 30
0.0
 10
6.3526400000000001
 20
9.2488899999999994
 30
0.0
 10
6.3337300000000001
 20
9.2111599999999996
 30
0.0
 10
6.3337300000000001
 20
9.2111599999999996
 30
0.0
 10
6.3337300000000001
 20
9.2111599999999996
 30
0.0
 10
6.3337300000000001
 20
9.2692700000000006
 30
0.0
 10
6.3337300000000001
 20
9.2692700000000006
 30
0.0
 10
6.3337300000000001
 20
9.2692700000000006
 30
0.0
 10
6.3337300000000001
 20
9.2692700000000006
 30
0.0
 10
6.2945500000000001
 20
9.2692700000000006
 30
0.0
 10
6.2945500000000001
 20
9.2692700000000006
 30
0.0
  0
SPLINE
  5
51
100
AcDbEntity
  8
Layer 1
 62
   178
100
AcDbSpline
210
0.0
220
0.0
230
1.0
 70
     1
 71
     3
 72
    20
 73
    16
 74
     0
 42
0.0000000001
 43
0.0000000001
 40
0.0
 40
0.0
 40
0.0
 40
0.0
 40
0.25
 40
0.25
 40
0.25
 40
0.25
 40
0.5
 40
0.5
 40
0.5
 40
0.5
 40
0.75
 40
0.75
 40
0.75
 40
0.75
 40
1.0
 40
1.0
 40
1.0
 40
1.0
 10
6.4485299999999999
 20
8.9643700000000006
 30
0.0
 10
6.3897399999999998
 20
8.9643700000000006
 30
0.0
 10
6.3337300000000001
 20
9.0134100000000004
 30
0.0
 10
6.3337300000000001
 20
9.1054999999999993
 30
0.0
 10
6.3337300000000001
 20
9.1054999999999993
 30
0.0
 10
6.3337300000000001
 20
9.1824700000000004
 30
0.0
 10
6.3771399999999998
 20
9.2466399999999993
 30
0.0
 10
6.4429299999999996
 20
9.2466399999999993
 30
0.0
 10
6.4429299999999996
 20
9.2466399999999993
 30
0.0
 10
6.5269399999999997
 20
9.2466399999999993
 30
0.0
 10
6.5591200000000001
 20
9.1711600000000004
 30
0.0
 10
6.5591200000000001
 20
9.1054999999999993
 30
0.0
 10
6.5591200000000001
 20
9.1054999999999993
 30
0.0
 10
6.5591200000000001
 20
9.0262399999999996
 30
0.0
 10
6.5185300000000002
 20
8.9643700000000006
 30
0.0
 10
6.4485299999999999
 20
8.9643700000000006
 30
0.0
  0
SPLINE
  5
52
100
AcDbEntity
  8
Layer 1
 62
   178
100
AcDbSpline
210
0.0
220
0.0
230
1.0
 70
     1
 71
     3
 72
    20
 73
    16
 74
     0
 42
0.0000000001
 43
0.0000000001
 40
0.0
 40
0.0
 40
0.0
 40
0.0
 40
0.25
 40
0.25
 40
0.25
 40
0.25
 40
0.5
 40
0.5
 40
0.5
 40
0.5
 40
0.75
 40
0.75
 40
0.75
 40
0.75
 40
1.0
 40
1.0
 40
1.0
 40
1.0
 10
7.1982600000000003
 20
8.9280100000000004
 30
0.0
 10
7.29556
 20
8.9280100000000004
 30
0.0
 10
7.3634500000000003
 20
9.0036100000000001
 30
0.0
 10
7.3634500000000003
 20
9.1054999999999993
 30
0.0
 10
7.3634500000000003
 20
9.1054999999999993
 30
0.0
 10
7.3634500000000003
 20
9.2073900000000002
 30
0.0
 10
7.29556
 20
9.2828499999999998
 30
0.0
 10
7.1982600000000003
 20
9.2828499999999998
 30
0.0
 10
7.1982600000000003
 20
9.2828499999999998
 30
0.0
 10
7.1009599999999997
 20
9.2828499999999998
 30
0.0
 10
7.0330700000000004
 20
9.2073900000000002
 30
0.0
 10
7.0330700000000004
 20
9.1054999999999993
 30
0.0
 10
7.0330700000000004
 20
9.1054999999999993
 30
0.0
 10
7.0330700000000004
 20
9.0036100000000001
 30
0.0
 10
7.1009599999999997
 20
8.9280100000000004
 30
0.0
 10
7.1982600000000003
 20
8.9280100000000004
 30
0.0
  0
SPLINE
  5
53
100
AcDbEntity
  8
Layer 1
 62
   178
100
AcDbSpline
210
0.0
220
0.0
230
1.0
 70
     1
 71
     3
 72
    20
 73
    16
 74
     0
 42
0.0000000001
 43
0.0000000001
 40
0.0
 40
0.0
 40
0.0
 40
0.0
 40
0.25
 40
0.25
 40
0.25
 40
0.25
 40
0.5
 40
0.5
 40
0.5
 40
0.5
 40
0.75
 40
0.75
 40
0.75
 40
0.75
 40
1.0
 40
1.0
 40
1.0
 40
1.0
 10
7.1982600000000003
 20
8.9643700000000006
 30
0.0
 10
7.1331800000000003
 20
8.9643700000000006
 30
0.0
 10
7.0778800000000004
 20
9.0202100000000005
 30
0.0
 10
7.0778800000000004
 20
9.1054999999999993
 30
0.0
 10
7.0778800000000004
 20
9.1054999999999993
 30
0.0
 10
7.0778800000000004
 20
9.1907800000000002
 30
0.0
 10
7.1331800000000003
 20
9.2466399999999993
 30
0.0
 10
7.1982600000000003
 20
9.2466399999999993
 30
0.0
 10
7.1982600000000003
 20
9.2466399999999993
 30
0.0
 10
7.2633599999999996
 20
9.2466399999999993
 30
0.0
 10
7.3186600000000004
 20
9.1907800000000002
 30
0.0
 10
7.3186600000000004
 20
9.1054999999999993
 30
0.0
 10
7.3186600000000004
 20
9.1054999999999993
 30
0.0
 10
7.3186600000000004
 20
9.0202100000000005
 30
0.0
 10
7.2633599999999996
 20
8.9643700000000006
 30
0.0
 10
7.1982600000000003
 20
8.9643700000000006
 30
0.0
  0
SPLINE
  5
54
100
AcDbEntity
  8
Layer 1
 62
   178
100
AcDbSpline
210
0.0
220
0.0
230
1.0
 70
     1
 71
     3
 72
    20
 73
    16
 74
     0
 42
0.0000000001
 43
0.0000000001
 40
0.0
 40
0.0
 40
0.0
 40
0.0
 40
0.25
 40
0.25
 40
0.25
 40
0.25
 40
0.5
 40
0.5
 40
0.5
 40
0.5
 40
0.75
 40
0.75
 40
0.75
 40
0.75
 40
1.0
 40
1.0
 40
1.0
 40
1.0
 10
-7.1509999999999998
 20
12.311439999999999
 30
0.0
 10
-7.1509999999999998
 20
12.311439999999999
 30
0.0
 10
-6.5557800000000004
 20
12.311439999999999
 30
0.0
 10
-6.5557800000000004
 20
12.311439999999999
 30
0.0
 10
-6.5557800000000004
 20
12.311439999999999
 30
0.0
 10
-6.5557800000000004
 20
12.311439999999999
 30
0.0
 10
-7.8269099999999998
 20
8.9540900000000008
 30
0.0
 10
-7.8269099999999998
 20
8.9540900000000008
 30
0.0
 10
-7.8269099999999998
 20
8.9540900000000008
 30
0.0
 10
-7.8269099999999998
 20
8.9540900000000008
 30
0.0
 10
-8.4221299999999992
 20
8.9540900000000008
 30
0.0
 10
-8.4221299999999992
 20
8.9540900000000008
 30
0.0
 10
-8.4221299999999992
 20
8.9540900000000008
 30
0.0
 10
-8.4221299999999992
 20
8.9540900000000008
 30
0.0
 10
-7.1509999999999998
 20
12.311439999999999
 30
0.0
 10
-7.1509999999999998
 20
12.311439999999999
 30
0.0
  0
SPLINE
  5
55
100
AcDbEntity
  8
Layer 1
 62
   178
100
AcDbSpline
210
0.0
220
0.0
230
1.0
 70
     1
 71
     3
 72
    20
 73
    16
 74
     0
 42
0.0000000001
 43
0.0000000001
 40
0.0
 40
0.0
 40
0.0
 40
0.0
 40
0.25
 40
0.25
 40
0.25
 40
0.25
 40
0.5
 40
0.5
 40
0.5
 40
0.5
 40
0.75
 40
0.75
 40
0.75
 40
0.75
 40
1.0
 40
1.0
 40
1.0
 40
1.0
 10
-6.2245600000000003
 20
12.311439999999999
 30
0.0
 10
-6.2245600000000003
 20
12.311439999999999
 30
0.0
 10
-5.62934
 20
12.311439999999999
 30
0.0
 10
-5.62934
 20
12.311439999999999
 30
0.0
 10
-5.62934
 20
12.311439999999999
 30
0.0
 10
-5.62934
 20
12.311439999999999
 30
0.0
 10
-6.9004700000000003
 20
8.9540900000000008
 30
0.0
 10
-6.9004700000000003
 20
8.9540900000000008
 30
0.0
 10
-6.9004700000000003
 20
8.9540900000000008
 30
0.0
 10
-6.9004700000000003
 20
8.9540900000000008
 30
0.0
 10
-7.4956899999999997
 20
8.9540900000000008
 30
0.0
 10
-7.4956899999999997
 20
8.9540900000000008
 30
0.0
 10
-7.4956899999999997
 20
8.9540900000000008
 30
0.0
 10
-7.4956899999999997
 20
8.9540900000000008
 30
0.0
 10
-6.2245600000000003
 20
12.311439999999999
 30
0.0
 10
-6.2245600000000003
 20
12.311439999999999
 30
0.0
  0
SPLINE
  5
56
100
AcDbEntity
  8
Layer 1
 62
   178
100
AcDbSpline
210
0.0
220
0.0
230
1.0
 70
     1
 71
     3
 72
    20
 73
    16
 74
     0
 42
0.0000000001
 43
0.0000000001
 40
0.0
 40
0.0
 40
0.0
 40
0.0
 40
0.25
 40
0.25
 40
0.25
 40
0.25
 40
0.5
 40
0.5
 40
0.5
 40
0.5
 40
0.75
 40
0.75
 40
0.75
 40
0.75
 40
1.0
 40
1.0
 40
1.0
 40
1.0
 10
0.58338
 20
12.15188
 30
0.0
 10
0.67676
 20
12.15188
 30
0.0
 10
0.75249
 20
12.076140000000001
 30
0.0
 10
0.75249
 20
11.982749999999999
 30
0.0
 10
0.75249
 20
11.982749999999999
 30
0.0
 10
0.75249
 20
11.88936
 30
0.0
 10
0.67676
 20
11.81363
 30
0.0
 10
0.58338
 20
11.81363
 30
0.0
 10
0.58338
 20
11.81363
 30
0.0
 10
0.48999
 20
11.81363
 30
0.0
 10
0.41426
 20
11.88936
 30
0.0
 10
0.41426
 20
11.982749999999999
 30
0.0
 10
0.41426
 20
11.982749999999999
 30
0.0
 10
0.41426
 20
12.076140000000001
 30
0.0
 10
0.48999
 20
12.15188
 30
0.0
 10
0.58338
 20
12.15188
 30
0.0
  0
ENDSEC
  0
SECTION
  2
OBJECTS
  0
DICTIONARY
  5
19
100
AcDbDictionary
280
     0
281
     1
  3
ACAD_GROUP
350
1A
  3
ACAD_MLINESTYLE
350
1B
  3
ACAD_LAYOUT
350
1E
  3
ACAD_PLOTSETTINGS
350
22
  3
ACAD_PLOTSTYLENAME
350
1F
  3
ACAD_WIPEOUT_VARS
350
23
  0
DICTIONARY
  5
1A
102
{ACAD_REACTORS
330
19
102
}
100
AcDbDictionary
280
     0
281
     1
  0
DICTIONARY
  5
1B
102
{ACAD_REACTORS
330
19
102
}
100
AcDbDictionary
280
     0
281
     1
  3
Standard
350
1C
  0
MLINESTYLE
  5
1C
102
{ACAD_REACTORS
330
1B
102
}
100
AcDbMlineStyle
  2
Standard
 70
     0
  3

 62
     0
 51
90.0
 52
90.0
 71
     2
 49
0.5
 62
   256
  6
BYLAYER
 49
-0.5
 62
   256
  6
BYLAYER
  0
ACDBDICTIONARYWDFLT
  5
1F
102
{ACAD_REACTORS
330
19
102
}
100
AcDbDictionary
281
     1
  3
Normal
350
1D
100
AcDbDictionaryWithDefault
340
1D
  0
ACDBPLACEHOLDER
  5
1D
102
{ACAD_REACTORS
330
1F
102
}
  0
LAYOUT
  5
20
102
{ACAD_REACTORS
330
1E
102
}
100
AcDbPlotSettings
  1

  2

  4

  6

 40
0.0
 41
0.0
 42
0.0
 43
0.0
 44
0.0
 45
0.0
 46
0.0
 47
0.0
 48
0.0
 49
0.0
140
0.0
141
0.0
142
1.0
143
1.0
 70
  1024
 72
     0
 73
     0
 74
     0
  7

 75
     0
147
1.0
148
0.0
149
0.0
100
AcDbLayout
  1
Model
 70
     0
 71
     0
 10
0.0
 20
0.0
 11
0.0
 21
0.0
 12
0.0
 22
0.0
 32
0.0
 14
0.0
 24
0.0
 34
0.0
 15
0.0
 25
0.0
 35
0.0
146
0.0
 13
0.0
 23
0.0
 33
0.0
 16
0.0
 26
0.0
 36
0.0
 17
0.0
 27
0.0
 37
0.0
 76
     0
330
A
331
0
345
0
346
0
  0
LAYOUT
  5
21
102
{ACAD_REACTORS
330
1E
102
}
100
AcDbPlotSettings
  1

  2

  4

  6

 40
0.0
 41
0.0
 42
0.0
 43
0.0
 44
0.0
 45
0.0
 46
0.0
 47
0.0
 48
0.0
 49
0.0
140
0.0
141
0.0
142
1.0
143
1.0
 70
     0
 72
     0
 73
     0
 74
     0
  7

 75
     0
147
1.0
148
0.0
149
0.0
100
AcDbLayout
  1
Layout1
 70
     0
 71
     0
 10
0.0
 20
0.0
 11
0.0
 21
0.0
 12
0.0
 22
0.0
 32
0.0
 14
0.0
 24
0.0
 34
0.0
 15
0.0
 25
0.0
 35
0.0
146
0.0
 13
0.0
 23
0.0
 33
0.0
 16
0.0
 26
0.0
 36
0.0
 17
0.0
 27
0.0
 37
0.0
 76
     0
330
B
331
0
345
0
346
0
  0
DICTIONARY
  5
1E
102
{ACAD_REACTORS
330
19
102
}
100
AcDbDictionary
280
     0
281
     1
  3
Layout1
350
21
  3
Model
350
20
  0
DICTIONARY
  5
22
102
{ACAD_REACTORS
330
19
102
}
100
AcDbDictionary
280
     0
281
     1
  0
WIPEOUTVARIABLES
  5
23
100
AcDbWipeoutVariables
 70
     1
  0
ENDSEC
  0
EOF
